<svg width="231" height="258" viewBox="0 0 231 258" fill="none" xmlns="http://www.w3.org/2000/svg">
<path d="M199.707 12.2929C199.317 11.9024 198.683 11.9024 198.293 12.2929L191.929 18.6569C191.538 19.0474 191.538 19.6805 191.929 20.0711C192.319 20.4616 192.953 20.4616 193.343 20.0711L199 14.4142L204.657 20.0711C205.047 20.4616 205.681 20.4616 206.071 20.0711C206.462 19.6805 206.462 19.0474 206.071 18.6569L199.707 12.2929ZM200 77L200 13L198 13L198 77L200 77Z" fill="#3FCCDF"/>
<path d="M198.293 245.707C198.683 246.098 199.317 246.098 199.707 245.707L206.071 239.343C206.462 238.953 206.462 238.319 206.071 237.929C205.681 237.538 205.047 237.538 204.657 237.929L199 243.586L193.343 237.929C192.953 237.538 192.319 237.538 191.929 237.929C191.538 238.319 191.538 238.953 191.929 239.343L198.293 245.707ZM198 181L198 245L200 245L200 181L198 181Z" fill="#3FCCDF"/>
<path d="M4.45608 6.03489C3.92307 6.17952 3.60822 6.72885 3.75284 7.26186L6.10964 15.9478C6.25426 16.4808 6.80359 16.7957 7.33661 16.651C7.86962 16.5064 8.18447 15.9571 8.03985 15.4241L5.94492 7.70323L13.6658 5.60831C14.1988 5.46368 14.5136 4.91435 14.369 4.38134C14.2244 3.84833 13.675 3.53348 13.142 3.6781L4.45608 6.03489ZM160.497 95.1324L5.21521 6.1324L4.22068 7.86759L159.503 96.8676L160.497 95.1324Z" fill="#3FCCDF"/>
<path d="M70.2929 128.293C69.9024 128.683 69.9024 129.317 70.2929 129.707L76.6569 136.071C77.0474 136.462 77.6805 136.462 78.0711 136.071C78.4616 135.681 78.4616 135.047 78.0711 134.657L72.4142 129L78.0711 123.343C78.4616 122.953 78.4616 122.319 78.0711 121.929C77.6805 121.538 77.0474 121.538 76.6569 121.929L70.2929 128.293ZM148 128H71V130H148V128Z" fill="#3FCCDF"/>
<path d="M4.10191 250.136C3.96032 250.67 4.27829 251.217 4.81211 251.359L13.5113 253.666C14.0451 253.808 14.5927 253.49 14.7343 252.956C14.8759 252.422 14.5579 251.875 14.0241 251.733L6.29144 249.682L8.34244 241.949C8.48403 241.416 8.16606 240.868 7.63224 240.727C7.09841 240.585 6.55088 240.903 6.40929 241.437L4.10191 250.136ZM158.498 160.135L4.5663 249.528L5.57068 251.257L159.502 161.865L158.498 160.135Z" fill="#3FCCDF"/>
</svg>
