<svg width="400" height="400" viewBox="0 0 400 400" fill="none" xmlns="http://www.w3.org/2000/svg">
<path d="M200 40C231.645 40 262.579 49.3838 288.891 66.9649C315.203 84.5459 335.711 109.534 347.821 138.771C359.931 168.007 363.099 200.177 356.926 231.214C350.752 262.251 335.513 290.761 313.137 313.137" stroke="#F74848" stroke-width="80"/>
<path d="M307.253 318.73C282.86 340.765 252.271 354.752 219.648 358.789C187.024 362.826 153.949 356.716 124.921 341.291" stroke="#3FCCDF" stroke-width="80"/>
<path d="M118.818 337.875C113.052 334.48 107.505 330.727 102.209 326.637" stroke="#51CF66" stroke-width="80"/>
<path d="M97.6509 322.982C72.9242 302.404 54.9748 274.85 46.1451 243.916" stroke="#FCC419" stroke-width="80"/>
<path d="M44.4637 237.529C36.9181 206.257 38.9743 173.437 50.3639 143.352" stroke="#5C7CFA" stroke-width="80"/>
<path d="M52.864 137.143C65.502 107.56 86.7639 82.4736 113.875 65.1575" stroke="#FF922B" stroke-width="80"/>
<path d="M118.97 62.0359C141.479 48.8157 166.881 41.3037 192.959 40.155" stroke="#F06595" stroke-width="80"/>
</svg>
