<svg width="362" height="366" viewBox="0 0 362 366" fill="none" xmlns="http://www.w3.org/2000/svg">
<path d="M169.5 83.7942C176.616 79.6857 185.384 79.6857 192.5 83.7942L261.165 123.438C268.281 127.546 272.665 135.139 272.665 143.356V222.644C272.665 230.861 268.281 238.454 261.165 242.562L192.5 282.206C185.384 286.314 176.616 286.314 169.5 282.206L100.835 242.562C93.7191 238.454 89.3353 230.861 89.3353 222.644V143.356C89.3353 135.139 93.7191 127.546 100.835 123.438L169.5 83.7942Z" fill="white" stroke="#3FCCDF" stroke-width="2"/>
<path d="M181.707 0.292892C181.317 -0.0976333 180.683 -0.0976334 180.293 0.292892L173.929 6.65685C173.538 7.04738 173.538 7.68054 173.929 8.07107C174.319 8.46159 174.953 8.46159 175.343 8.07107L181 2.41422L186.657 8.07107C187.047 8.46159 187.681 8.46159 188.071 8.07107C188.462 7.68054 188.462 7.04738 188.071 6.65685L181.707 0.292892ZM182 81L182 1L180 1L180 81L182 81Z" fill="#3FCCDF"/>
<path d="M180.293 365.707C180.683 366.098 181.317 366.098 181.707 365.707L188.071 359.343C188.462 358.953 188.462 358.319 188.071 357.929C187.681 357.538 187.047 357.538 186.657 357.929L181 363.586L175.343 357.929C174.953 357.538 174.319 357.538 173.929 357.929C173.538 358.319 173.538 358.953 173.929 359.343L180.293 365.707ZM180 285L180 365L182 365L182 285L180 285Z" fill="#3FCCDF"/>
<path d="M4.03408 282.741C3.89114 283.275 4.20772 283.823 4.74119 283.966L13.4345 286.295C13.968 286.438 14.5163 286.122 14.6593 285.588C14.8022 285.055 14.4856 284.506 13.9522 284.363L6.22475 282.293L8.29531 274.565C8.43825 274.032 8.12167 273.484 7.5882 273.341C7.05473 273.198 6.5064 273.514 6.36345 274.048L4.03408 282.741ZM91.1025 232.134L4.50001 282.134L5.50001 283.866L92.1025 233.866L91.1025 232.134Z" fill="#3FCCDF"/>
<path d="M4.74118 82.0341C4.20771 82.177 3.89113 82.7254 4.03408 83.2588L6.36345 91.9522C6.50639 92.4856 7.05473 92.8022 7.58819 92.6593C8.12166 92.5163 8.43824 91.968 8.2953 91.4345L6.22475 83.7071L13.9522 81.6366C14.4856 81.4936 14.8022 80.9453 14.6593 80.4118C14.5163 79.8783 13.968 79.5618 13.4345 79.7047L4.74118 82.0341ZM92.1025 132.134L5.5 82.134L4.5 83.866L91.1025 133.866L92.1025 132.134Z" fill="#3FCCDF"/>
<path d="M357.978 83.6872C358.121 83.1537 357.804 82.6054 357.271 82.4624L348.578 80.133C348.044 79.9901 347.496 80.3067 347.353 80.8402C347.21 81.3736 347.527 81.922 348.06 82.0649L355.787 84.1355L353.717 91.8629C353.574 92.3963 353.891 92.9447 354.424 93.0876C354.957 93.2305 355.506 92.914 355.649 92.3805L357.978 83.6872ZM270.91 134.294L357.512 84.2944L356.512 82.5623L269.91 132.562L270.91 134.294Z" fill="#3FCCDF"/>
<path d="M356.861 283.966C357.395 283.823 357.711 283.275 357.568 282.741L355.239 274.048C355.096 273.514 354.548 273.198 354.014 273.341C353.481 273.484 353.164 274.032 353.307 274.565L355.378 282.293L347.65 284.363C347.117 284.506 346.8 285.055 346.943 285.588C347.086 286.122 347.635 286.438 348.168 286.295L356.861 283.966ZM269.5 233.866L356.103 283.866L357.103 282.134L270.5 232.134L269.5 233.866Z" fill="#3FCCDF"/>
</svg>
