<svg width="214" height="286" viewBox="0 0 214 286" fill="none" xmlns="http://www.w3.org/2000/svg">
<path d="M95.5 43.7942C102.616 39.6857 111.384 39.6857 118.5 43.7942L187.165 83.4378C194.281 87.5464 198.665 95.1393 198.665 103.356V182.644C198.665 190.861 194.281 198.454 187.165 202.562L118.5 242.206C111.384 246.314 102.616 246.314 95.5 242.206L26.8353 202.562C19.7191 198.454 15.3353 190.861 15.3353 182.644V103.356C15.3353 95.1393 19.7191 87.5464 26.8353 83.4378L95.5 43.7942Z" fill="white" stroke="#3FCCDF" stroke-width="2"/>
<path d="M107.707 0.292892C107.317 -0.0976295 106.683 -0.0976296 106.293 0.292892L99.9289 6.65685C99.5384 7.04738 99.5384 7.68054 99.9289 8.07107C100.319 8.46159 100.953 8.46159 101.343 8.07107L107 2.41422L112.657 8.07107C113.047 8.46159 113.681 8.46159 114.071 8.07107C114.462 7.68054 114.462 7.04738 114.071 6.65685L107.707 0.292892ZM108 41L108 1L106 1L106 41L108 41Z" fill="#3FCCDF"/>
<path d="M106.293 285.707C106.683 286.098 107.317 286.098 107.707 285.707L114.071 279.343C114.462 278.953 114.462 278.319 114.071 277.929C113.681 277.538 113.047 277.538 112.657 277.929L107 283.586L101.343 277.929C100.953 277.538 100.319 277.538 99.9289 277.929C99.5384 278.319 99.5384 278.953 99.9289 279.343L106.293 285.707ZM106 245L106 285L108 285L108 245L106 245Z" fill="#3FCCDF"/>
</svg>
