<svg width="229" height="49" viewBox="0 0 229 49" fill="none" xmlns="http://www.w3.org/2000/svg">
<g opacity="0.7">
<g opacity="0.7">
<path opacity="0.6" d="M29.08 24.1L15 48.17V0.0200195L29.08 24.1Z" fill="#3FCCDF"/>
</g>
</g>
<path d="M14.07 22.0696H5.86L13.9 8.14954V0.0195312L0 24.0996L13.9 48.1695V40.0495L5.86 26.1296H14.07V22.0696Z" fill="#3FCCDF"/>
<path d="M30.5201 24.1L16.55 0.019989V0H21.3001L35.2101 24.1L23.65 44.13H34.9601H34.9801L46.5301 24.07L32.6201 0H37.3301L51.2401 24.1L37.3301 48.19H37.3101H32.6401H32.6201H21.3001H16.55V48.17L30.5201 24.1Z" fill="#3FCCDF"/>
<path d="M86.8098 33.7082C85.7378 34.4297 84.3871 34.992 82.7578 35.3952C81.1498 35.7984 79.4347 36 77.6124 36C75.3398 36 73.4103 35.7241 71.8238 35.1724C70.2373 34.5995 69.0367 33.8143 68.222 32.817C67.4073 31.7984 67 30.6419 67 29.3475C67 28.1592 67.3323 27.1088 67.9969 26.1963C68.6615 25.2838 69.5727 24.6048 70.7304 24.1592C69.8514 23.6923 69.1654 23.0557 68.6723 22.2493C68.2006 21.443 67.9648 20.5411 67.9648 19.5438C67.9648 18.3342 68.3399 17.2308 69.0903 16.2334C69.8407 15.2361 70.977 14.4403 72.4991 13.8462C74.0213 13.252 75.8865 12.9549 78.0948 12.9549C79.5526 12.9549 80.9783 13.1034 82.3719 13.4005C83.7654 13.6764 84.9767 14.0584 86.0058 14.5464L84.5587 18.4934C82.5863 17.5809 80.4959 17.1247 78.2877 17.1247C76.6155 17.1247 75.3505 17.3793 74.493 17.8886C73.6569 18.3767 73.2388 19.0451 73.2388 19.8939C73.2388 20.679 73.5175 21.2838 74.0749 21.7082C74.6538 22.1114 75.5221 22.313 76.6798 22.313H82.8221V26.3873H76.3582C75.0504 26.3873 74.0428 26.6101 73.3353 27.0557C72.6278 27.5013 72.274 28.1485 72.274 28.9973C72.274 29.8886 72.7242 30.5889 73.6247 31.0981C74.5466 31.5862 75.9508 31.8302 77.8375 31.8302C79.1667 31.8302 80.4959 31.6605 81.8252 31.321C83.1544 30.9602 84.2799 30.4615 85.2018 29.8249L86.8098 33.7082Z" fill="#3FCCDF"/>
<path d="M106.914 12V35.618H102.122V33.6446C100.879 35.13 99.078 35.8727 96.7197 35.8727C95.0903 35.8727 93.611 35.5119 92.2818 34.7905C90.974 34.069 89.9449 33.0398 89.1945 31.7029C88.4442 30.366 88.069 28.817 88.069 27.0557C88.069 25.2944 88.4442 23.7454 89.1945 22.4085C89.9449 21.0716 90.974 20.0424 92.2818 19.321C93.611 18.5995 95.0903 18.2387 96.7197 18.2387C98.9279 18.2387 100.654 18.9284 101.897 20.3077V12H106.914ZM97.588 31.7984C98.8529 31.7984 99.9034 31.374 100.74 30.5252C101.576 29.6552 101.994 28.4987 101.994 27.0557C101.994 25.6127 101.576 24.4668 100.74 23.618C99.9034 22.748 98.8529 22.313 97.588 22.313C96.3016 22.313 95.2404 22.748 94.4042 23.618C93.5681 24.4668 93.1501 25.6127 93.1501 27.0557C93.1501 28.4987 93.5681 29.6552 94.4042 30.5252C95.2404 31.374 96.3016 31.7984 97.588 31.7984Z" fill="#3FCCDF"/>
<path d="M128.987 18.4934V35.618H124.228V33.5809C123.563 34.3236 122.77 34.8966 121.848 35.2997C120.926 35.6817 119.929 35.8727 118.857 35.8727C116.585 35.8727 114.784 35.2255 113.455 33.931C112.125 32.6366 111.461 30.7162 111.461 28.1698V18.4934H116.477V27.4377C116.477 30.1963 117.646 31.5756 119.983 31.5756C121.183 31.5756 122.148 31.1936 122.877 30.4297C123.606 29.6446 123.97 28.4881 123.97 26.9602V18.4934H128.987Z" fill="#3FCCDF"/>
<path d="M141.134 36C139.354 36 137.629 35.7666 135.956 35.2997C134.306 34.8117 132.976 34.1857 131.969 33.4217L133.737 29.5385C134.702 30.2387 135.849 30.8011 137.178 31.2255C138.508 31.6499 139.837 31.8621 141.166 31.8621C142.645 31.8621 143.739 31.6499 144.446 31.2255C145.154 30.7798 145.507 30.1963 145.507 29.4748C145.507 28.9443 145.293 28.5093 144.864 28.1698C144.457 27.809 143.921 27.5225 143.256 27.3103C142.613 27.0981 141.734 26.8647 140.619 26.6101C138.904 26.2069 137.5 25.8037 136.407 25.4005C135.313 24.9973 134.37 24.3501 133.577 23.4589C132.805 22.5676 132.419 21.3793 132.419 19.8939C132.419 18.5995 132.773 17.4324 133.48 16.3926C134.188 15.3316 135.249 14.4934 136.664 13.878C138.1 13.2626 139.848 12.9549 141.906 12.9549C143.342 12.9549 144.746 13.1247 146.118 13.4642C147.491 13.8037 148.691 14.2918 149.72 14.9284L148.112 18.8435C146.033 17.6764 143.953 17.0928 141.874 17.0928C140.416 17.0928 139.333 17.3263 138.625 17.7931C137.939 18.2599 137.596 18.8753 137.596 19.6393C137.596 20.4032 137.993 20.9761 138.786 21.3581C139.601 21.7188 140.834 22.0796 142.485 22.4403C144.2 22.8435 145.604 23.2467 146.697 23.6499C147.791 24.0531 148.723 24.6897 149.495 25.5597C150.288 26.4297 150.685 27.6074 150.685 29.0928C150.685 30.366 150.321 31.5332 149.592 32.5942C148.884 33.634 147.812 34.4615 146.376 35.0769C144.939 35.6923 143.192 36 141.134 36Z" fill="#3FCCDF"/>
<path d="M164.407 18.2387C166.551 18.2387 168.277 18.8753 169.585 20.1485C170.914 21.4218 171.578 23.3103 171.578 25.8143V35.618H166.562V26.5782C166.562 25.2202 166.261 24.2122 165.661 23.5544C165.061 22.8753 164.193 22.5358 163.056 22.5358C161.791 22.5358 160.784 22.9284 160.033 23.7135C159.283 24.4775 158.908 25.6233 158.908 27.1512V35.618H153.891V12H158.908V20.2759C159.572 19.618 160.376 19.1194 161.32 18.7798C162.263 18.4191 163.292 18.2387 164.407 18.2387Z" fill="#3FCCDF"/>
<path d="M193.873 18.4934V35.618H189.081V33.6446C187.838 35.13 186.037 35.8727 183.679 35.8727C182.049 35.8727 180.57 35.5119 179.241 34.7905C177.933 34.069 176.904 33.0398 176.153 31.7029C175.403 30.366 175.028 28.817 175.028 27.0557C175.028 25.2944 175.403 23.7454 176.153 22.4085C176.904 21.0716 177.933 20.0424 179.241 19.321C180.57 18.5995 182.049 18.2387 183.679 18.2387C185.887 18.2387 187.613 18.9284 188.856 20.3077V18.4934H193.873ZM184.547 31.7984C185.812 31.7984 186.862 31.374 187.698 30.5252C188.535 29.6552 188.953 28.4987 188.953 27.0557C188.953 25.6127 188.535 24.4668 187.698 23.618C186.862 22.748 185.812 22.313 184.547 22.313C183.261 22.313 182.199 22.748 181.363 23.618C180.527 24.4668 180.109 25.6127 180.109 27.0557C180.109 28.4987 180.527 29.6552 181.363 30.5252C182.199 31.374 183.261 31.7984 184.547 31.7984Z" fill="#3FCCDF"/>
<path d="M203.309 20.7533C203.91 19.9257 204.713 19.2997 205.721 18.8753C206.75 18.4509 207.929 18.2387 209.259 18.2387V22.8223C208.701 22.7798 208.326 22.7586 208.133 22.7586C206.697 22.7586 205.571 23.1618 204.756 23.9682C203.942 24.7533 203.534 25.9416 203.534 27.5332V35.618H198.518V18.4934H203.309V20.7533Z" fill="#3FCCDF"/>
<path d="M220.8 31.8939C221.7 31.8939 222.493 31.7666 223.179 31.5119C223.887 31.2361 224.541 30.8117 225.141 30.2387L227.81 33.1034C226.181 34.9496 223.801 35.8727 220.671 35.8727C218.72 35.8727 216.994 35.5013 215.493 34.7586C213.993 33.9947 212.835 32.9443 212.02 31.6074C211.206 30.2706 210.798 28.7533 210.798 27.0557C210.798 25.3793 211.195 23.8727 211.988 22.5358C212.803 21.1777 213.907 20.1273 215.3 19.3846C216.715 18.6207 218.302 18.2387 220.06 18.2387C221.711 18.2387 223.211 18.5889 224.562 19.2891C225.913 19.9682 226.985 20.9655 227.778 22.2812C228.593 23.5756 229 25.1141 229 26.8966L216.201 29.3475C216.565 30.1963 217.133 30.8329 217.905 31.2573C218.698 31.6817 219.663 31.8939 220.8 31.8939ZM220.06 21.9947C218.795 21.9947 217.766 22.3979 216.973 23.2042C216.179 24.0106 215.761 25.1247 215.718 26.5464L224.144 24.9231C223.908 24.0318 223.426 23.321 222.697 22.7905C221.968 22.2599 221.089 21.9947 220.06 21.9947Z" fill="#3FCCDF"/>
</svg>
