<svg xmlns="http://www.w3.org/2000/svg" fill="none" viewBox="0 0 64 64"><defs/><g clip-path="url(#clip0)"><path fill="#F74848" d="M32.21 15.13L38 49l-9 8-9-8 5.79-33.87h6.42z"/><path fill="#1D1B4C" d="M53.447 64H10.553c-2.648 0-4.856-2.055-5.026-4.678l-3.517-54a4.933 4.933 0 011.34-3.727A5.07 5.07 0 017.037 0h49.926c1.394 0 2.739.581 3.688 1.595a4.933 4.933 0 011.339 3.727l-3.517 54.001C58.303 61.945 56.095 64 53.447 64zM7.037 2c-.856 0-1.647.342-2.229.962a2.95 2.95 0 00-.802 2.23l3.517 54C7.625 60.767 8.956 62 10.553 62h42.894c1.597 0 2.928-1.233 3.03-2.807l3.517-54a2.95 2.95 0 00-.802-2.23A3.023 3.023 0 0056.962 2H7.038z"/><path fill="#1D1B4C" d="M15 18a1.001 1.001 0 01-1-1V1a1 1 0 012 0v14.586l13.855-4.89-12.436-8.882A1 1 0 0118.58.186l14 10a1 1 0 01-.248 1.757l-17 6A.992.992 0 0115 18z"/><path fill="#1D1B4C" d="M49 18a.992.992 0 01-.333-.057l-17-6a1 1 0 01-.248-1.757l14-10a1 1 0 111.162 1.628l-12.436 8.883L48 15.587V1a1 1 0 012 0v16a1 1 0 01-1 1z"/><path fill="#1D1B4C" d="M32 55a.996.996 0 01-.665-.253l-9-8a1 1 0 01-.32-.916l5.79-33.87a1 1 0 111.97.337L24.08 45.621 32 52.662l7.92-7.04-5.696-33.324a1 1 0 011.972-.337l5.79 33.87a1 1 0 01-.322.916l-9 8A.996.996 0 0132 55z"/><path fill="#1D1B4C" d="M28 46c-.26 0-.52-.11-.71-.29-.18-.19-.29-.45-.29-.71 0-.26.11-.52.29-.71.37-.37 1.05-.37 1.42 0 .18.19.29.44.29.71 0 .26-.11.52-.29.71-.19.18-.45.29-.71.29zm4-4c-.26 0-.52-.11-.71-.29-.18-.19-.29-.45-.29-.71 0-.26.11-.52.29-.71.37-.37 1.05-.37 1.42 0 .18.19.29.45.29.71 0 .26-.11.52-.29.71-.19.18-.45.29-.71.29zm0 4c-.26 0-.52-.11-.71-.29-.18-.19-.29-.45-.29-.71 0-.27.11-.52.29-.71.38-.37 1.05-.37 1.42 0 .18.19.29.45.29.71 0 .26-.11.52-.29.71-.19.18-.44.29-.71.29zm-4-4c-.26 0-.52-.11-.71-.29-.18-.19-.29-.45-.29-.71 0-.26.11-.52.29-.71.37-.37 1.05-.37 1.42 0 .18.19.29.45.29.71 0 .26-.11.52-.29.71-.19.18-.44.29-.71.29zm4 8c-.26 0-.52-.11-.71-.29-.18-.19-.29-.45-.29-.71 0-.27.11-.52.29-.71.37-.37 1.05-.37 1.42 0 .18.19.29.45.29.71 0 .26-.11.52-.29.71-.19.18-.45.29-.71.29zm4-4c-.27 0-.52-.11-.71-.29-.18-.19-.29-.45-.29-.71 0-.26.11-.52.29-.71.37-.37 1.05-.37 1.42 0 .18.19.29.45.29.71 0 .26-.11.52-.29.71-.19.18-.45.29-.71.29zm0-4c-.26 0-.52-.11-.71-.29-.18-.19-.29-.45-.29-.71 0-.26.11-.52.29-.71.37-.37 1.05-.37 1.42 0 .18.19.29.45.29.71 0 .26-.11.52-.29.71-.19.18-.45.29-.71.29zM17.999 64a1 1 0 01-.997-.934l-2-30a1 1 0 01.932-1.064c.537-.046 1.027.38 1.064.931l2 30a1 1 0 01-.932 1.065L18 64zm28.002 0l-.067-.002a1 1 0 01-.932-1.064l2-30a.995.995 0 011.064-.932 1 1 0 01.932 1.064l-2 30A1 1 0 0146 64zm-33.002 0a1 1 0 01-.997-.934l-.67-10a1 1 0 01.931-1.064c.551-.02 1.028.38 1.065.931l.67 10A1 1 0 0112.999 64zm38.002 0l-.068-.002a1 1 0 01-.93-1.064l.67-10c.036-.551.5-.952 1.064-.932a1 1 0 01.93 1.064l-.67 10a1 1 0 01-.996.934z"/></g><defs><clipPath id="clip0"><path fill="#fff" d="M0 0h64v64H0z"/></clipPath></defs></svg>