<svg xmlns="http://www.w3.org/2000/svg" fill="none" viewBox="0 0 64 64"><defs/><path fill="#F74848" d="M12 22a2 2 0 100-4 2 2 0 000 4zm11 0a2 2 0 100-4 2 2 0 000 4zm11 0a2 2 0 100-4 2 2 0 000 4zm11 0a2 2 0 100-4 2 2 0 000 4zm11 0a2 2 0 100-4 2 2 0 000 4zm-34 5H10v12h12V27z"/><path fill="#1D1B4C" d="M59 56H5c-2.757 0-5-2.243-5-5V17c0-2.757 2.243-5 5-5h54c2.757 0 5 2.243 5 5v34c0 2.757-2.243 5-5 5zM5 14c-1.654 0-3 1.346-3 3v34c0 1.654 1.346 3 3 3h54c1.654 0 3-1.346 3-3V17c0-1.654-1.346-3-3-3H5z"/><path fill="#1D1B4C" d="M10 21c-1.654 0-3-1.346-3-3s1.346-3 3-3 3 1.346 3 3-1.346 3-3 3zm0-4a1.001 1.001 0 000 2 1 1 0 000-2zm11 4c-1.654 0-3-1.346-3-3s1.346-3 3-3 3 1.346 3 3-1.346 3-3 3zm0-4a1 1 0 000 2 1 1 0 000-2zm11 4c-1.654 0-3-1.346-3-3s1.346-3 3-3 3 1.346 3 3-1.346 3-3 3zm0-4a1 1 0 000 2 1 1 0 000-2zm11 4c-1.654 0-3-1.346-3-3s1.346-3 3-3 3 1.346 3 3-1.346 3-3 3zm0-4a1 1 0 000 2 1 1 0 000-2zm11 4c-1.654 0-3-1.346-3-3s1.346-3 3-3 3 1.346 3 3-1.346 3-3 3zm0-4a1 1 0 000 2 1 1 0 000-2z"/><path fill="#1D1B4C" d="M10 17a1 1 0 01-1-1v-6a1 1 0 112 0v6a1 1 0 01-1 1zm11 0a1 1 0 01-1-1v-6a1 1 0 112 0v6a1 1 0 01-1 1zm11 0a1 1 0 01-1-1v-6a1 1 0 112 0v6a1 1 0 01-1 1zm11 0a1 1 0 01-1-1v-6a1 1 0 112 0v6a1 1 0 01-1 1zm11 0a1 1 0 01-1-1v-6a1 1 0 112 0v6a1 1 0 01-1 1zM20 38H8a1 1 0 01-1-1V25a1 1 0 011-1h12a1 1 0 011 1v12a1 1 0 01-1 1zM9 36h10V26H9v10zm44-10H25a1 1 0 110-2h28a1 1 0 110 2zm0 6H25a1 1 0 110-2h28a1 1 0 110 2zm0 6H25a1 1 0 110-2h28a1 1 0 110 2zm0 6H8a1 1 0 110-2h45a1 1 0 110 2zM8 50c-.27 0-.52-.11-.71-.29-.18-.19-.29-.45-.29-.71 0-.26.11-.52.29-.71.37-.37 1.04-.37 1.42 0 .18.19.29.45.29.71 0 .26-.1.52-.29.71-.19.18-.45.29-.71.29zm4 0c-.26 0-.52-.11-.71-.29-.19-.19-.29-.45-.29-.71 0-.26.1-.52.29-.71.38-.37 1.05-.37 1.42 0 .18.19.29.45.29.71 0 .26-.11.52-.29.71-.19.18-.45.29-.71.29zm4 0c-.26 0-.52-.11-.71-.29A1.05 1.05 0 0115 49c0-.26.11-.52.29-.71.38-.37 1.04-.37 1.42 0 .18.19.29.45.29.71 0 .26-.11.52-.29.71-.19.18-.45.29-.71.29zm4 0c-.26 0-.52-.11-.71-.29A1.05 1.05 0 0119 49c0-.26.11-.52.29-.71.37-.37 1.04-.37 1.42 0 .18.19.29.45.29.71 0 .26-.11.52-.29.71-.19.18-.45.29-.71.29zm4 0c-.27 0-.52-.11-.71-.29A1.03 1.03 0 0123 49c0-.27.11-.52.29-.71.37-.37 1.04-.37 1.42 0 .18.19.29.45.29.71 0 .26-.11.52-.29.71-.19.18-.45.29-.71.29zm4 0c-.26 0-.52-.11-.71-.29A1.05 1.05 0 0127 49c0-.27.11-.52.29-.71.37-.37 1.04-.37 1.42 0 .18.19.29.45.29.71 0 .26-.11.52-.29.71-.19.18-.45.29-.71.29zm4 0c-.26 0-.52-.11-.71-.29A1.05 1.05 0 0131 49c0-.27.11-.52.29-.71.37-.37 1.04-.37 1.42 0 .18.19.29.45.29.71 0 .26-.11.52-.29.71-.19.18-.45.29-.71.29zm4 0c-.26 0-.52-.11-.71-.29A1.03 1.03 0 0135 49c0-.26.11-.52.29-.71.38-.37 1.04-.37 1.42 0 .18.19.29.45.29.71 0 .26-.11.52-.29.71-.19.18-.45.29-.71.29zm4 0c-.26 0-.52-.11-.71-.29A1.05 1.05 0 0139 49c0-.26.11-.52.29-.71.37-.37 1.05-.37 1.42 0 .18.19.29.45.29.71 0 .26-.11.52-.3.71a.99.99 0 01-.7.29zm4 0c-.27 0-.52-.11-.71-.29A1.05 1.05 0 0143 49c0-.26.11-.52.29-.71.37-.37 1.05-.37 1.42 0 .18.19.29.45.29.71 0 .26-.11.52-.29.71-.19.18-.45.29-.71.29zm4 0c-.26 0-.52-.11-.71-.29A1.03 1.03 0 0147 49c0-.26.11-.52.29-.71.37-.37 1.05-.37 1.42 0 .18.19.29.45.29.71 0 .27-.11.52-.29.71-.19.18-.44.29-.71.29zm4 0c-.26 0-.52-.11-.71-.29A1.03 1.03 0 0151 49c0-.26.11-.52.29-.71.38-.37 1.05-.37 1.42 0 .19.19.29.45.29.71 0 .26-.1.52-.29.71-.19.18-.45.29-.71.29zm4 0c-.27 0-.52-.11-.71-.29A1.05 1.05 0 0155 49c0-.26.11-.52.29-.71.37-.37 1.04-.37 1.42 0 .18.19.29.45.29.71 0 .26-.11.52-.29.71-.19.18-.45.29-.71.29zm0-6c-.27 0-.52-.11-.71-.29A1.05 1.05 0 0155 43c0-.26.11-.52.29-.71.37-.37 1.04-.37 1.42 0 .18.19.29.45.29.71 0 .26-.11.52-.29.71-.19.18-.45.29-.71.29zm0-6c-.27 0-.52-.11-.71-.29A1.05 1.05 0 0155 37c0-.26.11-.52.29-.71.37-.37 1.04-.37 1.42 0 .18.19.29.45.29.71 0 .26-.11.52-.29.71-.19.18-.45.29-.71.29zm0-6c-.27 0-.52-.11-.71-.29A1.05 1.05 0 0155 31c0-.26.11-.52.29-.71.37-.37 1.04-.37 1.42 0 .18.19.29.45.29.71 0 .26-.11.52-.29.71-.19.18-.45.29-.71.29zm0-6c-.27 0-.52-.11-.71-.29A1.05 1.05 0 0155 25c0-.26.11-.52.29-.71.37-.37 1.04-.37 1.42 0 .18.19.29.45.29.71 0 .26-.11.52-.29.71-.19.18-.45.29-.71.29z"/></svg>