<svg xmlns="http://www.w3.org/2000/svg" fill="none" viewBox="0 0 64 64"><defs/><path fill="#F74848" d="M30 38a4 4 0 100-8 4 4 0 000 8zm3 23a4 4 0 100-8 4 4 0 000 8zm24-13a4 4 0 100-8 4 4 0 000 8zM9 48a4 4 0 100-8 4 4 0 000 8zm21-37a4 4 0 100-8 4 4 0 000 8zm24 13a4 4 0 100-8 4 4 0 000 8zM6 24a4 4 0 100-8 4 4 0 000 8z"/><path fill="#1D1B4C" d="M8 43a1 1 0 01-1-1V22a1 1 0 112 0v20a1 1 0 01-1 1zm3.451-26.01a1 1 0 01-.505-1.863l16.74-9.77a1 1 0 111.008 1.726l-16.74 9.77a.993.993 0 01-.503.137zM56 43a1 1 0 01-1-1V22a1 1 0 112 0v20a1 1 0 01-1 1zM28.189 58.78a.992.992 0 01-.503-.136l-16.74-9.771a1 1 0 111.008-1.726l16.74 9.77a1 1 0 01-.505 1.863zm7.622 0a1 1 0 01-.505-1.863l16.74-9.77a.999.999 0 111.008 1.726l-16.74 9.77a.992.992 0 01-.503.137zm16.738-41.79a.99.99 0 01-.503-.136l-16.74-9.771a1 1 0 111.008-1.727l16.74 9.77a1 1 0 01-.505 1.864z"/><path fill="#1D1B4C" d="M32 10c-2.757 0-5-2.243-5-5s2.243-5 5-5 5 2.243 5 5-2.243 5-5 5zm0-8c-1.654 0-3 1.346-3 3s1.346 3 3 3 3-1.346 3-3-1.346-3-3-3zm0 62c-2.757 0-5-2.243-5-5s2.243-5 5-5 5 2.243 5 5-2.243 5-5 5zm0-8c-1.654 0-3 1.346-3 3s1.346 3 3 3 3-1.346 3-3-1.346-3-3-3zm24-5c-2.757 0-5-2.243-5-5s2.243-5 5-5 5 2.243 5 5-2.243 5-5 5zm0-8c-1.654 0-3 1.346-3 3s1.346 3 3 3 3-1.346 3-3-1.346-3-3-3zm0-20c-2.757 0-5-2.243-5-5s2.243-5 5-5 5 2.243 5 5-2.243 5-5 5zm0-8c-1.654 0-3 1.346-3 3s1.346 3 3 3 3-1.346 3-3-1.346-3-3-3zM8 23c-2.757 0-5-2.243-5-5s2.243-5 5-5 5 2.243 5 5-2.243 5-5 5zm0-8c-1.654 0-3 1.346-3 3s1.346 3 3 3 3-1.346 3-3-1.346-3-3-3zm0 36c-2.757 0-5-2.243-5-5s2.243-5 5-5 5 2.243 5 5-2.243 5-5 5zm0-8c-1.654 0-3 1.346-3 3s1.346 3 3 3 3-1.346 3-3-1.346-3-3-3z"/><path fill="#1D1B4C" d="M32 56a1 1 0 01-1-1V36a1 1 0 112 0v19a1 1 0 01-1 1zm0-27a1 1 0 01-1-1V9a1 1 0 112 0v19a1 1 0 01-1 1zm-3.451 1.99a.991.991 0 01-.503-.136l-17.1-9.981a1 1 0 111.008-1.727l17.1 9.98a1 1 0 01-.505 1.864zm6.902 0a1 1 0 01-.505-1.863l17.1-9.98a.999.999 0 111.008 1.726l-17.1 9.98a.992.992 0 01-.503.137zm17.098 14a.99.99 0 01-.503-.137l-17.1-9.98a1 1 0 111.008-1.726l17.1 9.98a1 1 0 01-.505 1.863zm-41.098 0a1 1 0 01-.505-1.863l17.1-9.98a.999.999 0 111.008 1.726l-17.1 9.98a.992.992 0 01-.503.137z"/><path fill="#1D1B4C" d="M32 37c-2.757 0-5-2.243-5-5s2.243-5 5-5 5 2.243 5 5-2.243 5-5 5zm0-8c-1.654 0-3 1.346-3 3s1.346 3 3 3 3-1.346 3-3-1.346-3-3-3zM10.019 43.55a.998.998 0 01-.862-1.505l19.96-34.1a.998.998 0 111.726 1.01l-19.96 34.1a.998.998 0 01-.864.495zm43.961 0a.998.998 0 01-.863-.495l-19.96-34.1a1 1 0 111.726-1.01l19.96 34.1a1 1 0 01-.862 1.505zM52 47H12a1 1 0 110-2h40a1 1 0 110 2z"/></svg>