<svg xmlns="http://www.w3.org/2000/svg" fill="none" viewBox="0 0 64 64"><defs/><path fill="#F74848" d="M41 60H27V49a7 7 0 1114 0v11zm21-36L56 6H10L4 24h22.5l6.5-6 6.5 6H62z"/><path fill="#1D1B4C" d="M63 63H1a1 1 0 110-2h62a1 1 0 110 2z"/><path fill="#1D1B4C" d="M56 63H8a1 1 0 01-1-1V20a1 1 0 112 0v41h46V20a1 1 0 112 0v42a1 1 0 01-1 1z"/><path fill="#1D1B4C" d="M61 21H38.5c-.251 0-.493-.095-.679-.266L32 15.361l-5.821 5.373A1.003 1.003 0 0125.5 21H3a1 1 0 110-2h22.11l6.211-5.734a1.001 1.001 0 011.358 0L38.89 19H61a1 1 0 110 2z"/><path fill="#1D1B4C" d="M61 21a1 1 0 01-.948-.684L54.279 3H9.721L3.948 20.316a1 1 0 11-1.896-.633l6-18A.999.999 0 019 1h46c.43 0 .813.275.948.684l6 18A1 1 0 0161 21zM39 63H25a1 1 0 01-1-1V51c0-4.411 3.589-8 8-8s8 3.589 8 8v11a1 1 0 01-1 1zm-13-2h12V51c0-3.309-2.691-6-6-6s-6 2.691-6 6v10zm-6-20h-6a1 1 0 01-1-1v-9a1 1 0 011-1h6a1 1 0 011 1v9a1 1 0 01-1 1zm-5-2h4v-7h-4v7zm5 17h-6a1 1 0 01-1-1v-9a1 1 0 011-1h6a1 1 0 011 1v9a1 1 0 01-1 1zm-5-2h4v-7h-4v7zm35-13h-6a1 1 0 01-1-1v-9a1 1 0 011-1h6a1 1 0 011 1v9a1 1 0 01-1 1zm-5-2h4v-7h-4v7zm5 17h-6a1 1 0 01-1-1v-9a1 1 0 011-1h6a1 1 0 011 1v9a1 1 0 01-1 1zm-5-2h4v-7h-4v7z"/><path fill="#1D1B4C" d="M32 32c-3.309 0-6-2.691-6-6s2.691-6 6-6 6 2.691 6 6-2.691 6-6 6zm0-10c-2.206 0-4 1.794-4 4s1.794 4 4 4 4-1.794 4-4-1.794-4-4-4zm0 15c-.26 0-.52-.11-.71-.29A1.05 1.05 0 0131 36c0-.27.11-.52.29-.71.38-.37 1.04-.37 1.42 0 .18.19.29.45.29.71 0 .26-.11.52-.29.71-.19.18-.45.29-.71.29zm0 4c-.26 0-.52-.11-.71-.29A1.05 1.05 0 0131 40c0-.27.11-.52.29-.71.37-.36 1.05-.37 1.42 0 .18.19.29.44.29.71 0 .26-.11.52-.29.71-.19.18-.45.29-.71.29zm4-4c-.26 0-.52-.11-.71-.29A1.05 1.05 0 0135 36c0-.26.11-.52.29-.71.38-.37 1.05-.37 1.42 0 .18.19.29.45.29.71 0 .26-.11.52-.3.71a.99.99 0 01-.7.29zm0 4c-.26 0-.52-.11-.71-.29a1.01 1.01 0 010-1.42c.37-.37 1.05-.37 1.42 0 .18.19.29.44.29.71 0 .26-.11.52-.29.71-.19.18-.45.29-.71.29zm-8-4c-.26 0-.52-.11-.71-.29A1.05 1.05 0 0127 36c0-.26.11-.52.29-.71.38-.37 1.04-.37 1.42 0 .18.19.29.45.29.71 0 .26-.11.52-.29.71-.19.18-.45.29-.71.29zm0 4c-.26 0-.52-.11-.71-.29-.19-.19-.29-.45-.29-.71 0-.27.11-.52.29-.71.37-.37 1.04-.37 1.42 0 .18.19.29.44.29.71 0 .26-.11.52-.29.71-.19.18-.45.29-.71.29zm11 11H25a1 1 0 110-2h14a1 1 0 110 2z"/><path fill="#1D1B4C" d="M32 52a1 1 0 01-1-1v-7a1 1 0 112 0v7a1 1 0 01-1 1z"/></svg>