<svg xmlns="http://www.w3.org/2000/svg" fill="none" viewBox="0 0 64 64"><defs/><path fill="#F74848" d="M34 14a6 6 0 100-12 6 6 0 000 12zm5 20H21V20a4 4 0 014-4h10a4 4 0 014 4v14z"/><path fill="#1D1B4C" d="M32 14c-3.86 0-7-3.14-7-7s3.14-7 7-7 7 3.14 7 7-3.14 7-7 7zm0-12c-2.757 0-5 2.243-5 5s2.243 5 5 5 5-2.243 5-5-2.243-5-5-5z"/><path fill="#1D1B4C" d="M41 32H23a1 1 0 01-1-1V17c0-2.757 2.243-5 5-5h10c2.757 0 5 2.243 5 5v14a1 1 0 01-1 1zm-17-2h16V17c0-1.654-1.346-3-3-3H27c-1.654 0-3 1.346-3 3v13z"/><path fill="#1D1B4C" d="M28 32a1 1 0 01-1-1V21a1 1 0 112 0v10a1 1 0 01-1 1zm8 0a1 1 0 01-1-1V21a1 1 0 112 0v10a1 1 0 01-1 1zM10 46c-3.86 0-7-3.14-7-7s3.14-7 7-7 7 3.14 7 7-3.14 7-7 7zm0-12c-2.757 0-5 2.243-5 5s2.243 5 5 5 5-2.243 5-5-2.243-5-5-5z"/><path fill="#1D1B4C" d="M19 64H1a1 1 0 01-1-1V49c0-2.757 2.243-5 5-5h10c2.757 0 5 2.243 5 5v14a1 1 0 01-1 1zM2 62h16V49c0-1.654-1.346-3-3-3H5c-1.654 0-3 1.346-3 3v13z"/><path fill="#1D1B4C" d="M6 64a1 1 0 01-1-1V53a1 1 0 112 0v10a1 1 0 01-1 1zm8 0a1 1 0 01-1-1V53a1 1 0 112 0v10a1 1 0 01-1 1zm40-18c-3.86 0-7-3.14-7-7s3.14-7 7-7 7 3.14 7 7-3.14 7-7 7zm0-12c-2.757 0-5 2.243-5 5s2.243 5 5 5 5-2.243 5-5-2.243-5-5-5z"/><path fill="#1D1B4C" d="M63 64H45a1 1 0 01-1-1V49c0-2.757 2.243-5 5-5h10c2.757 0 5 2.243 5 5v14a1 1 0 01-1 1zm-17-2h16V49c0-1.654-1.346-3-3-3H49c-1.654 0-3 1.346-3 3v13z"/><path fill="#1D1B4C" d="M50 64a1 1 0 01-1-1V53a1 1 0 112 0v10a1 1 0 01-1 1zm8 0a1 1 0 01-1-1V53a1 1 0 112 0v10a1 1 0 01-1 1zM32 46a1 1 0 01-1-1V35a1 1 0 112 0v10a1 1 0 01-1 1z"/><path fill="#1D1B4C" d="M23 54a1 1 0 01-.664-1.748l9-8a1 1 0 111.328 1.496l-9 8A.998.998 0 0123 54z"/><path fill="#1D1B4C" d="M41 54a.995.995 0 01-.664-.252l-9-8a1 1 0 111.328-1.495l9 8A1 1 0 0141 54zm-9-37c-.26 0-.52-.11-.71-.29A1.05 1.05 0 0131 16c0-.26.11-.52.29-.71.38-.37 1.05-.37 1.42 0 .18.19.29.45.29.71 0 .26-.11.52-.29.71-.19.18-.45.29-.71.29zm22 32c-.26 0-.52-.1-.71-.29A1.05 1.05 0 0153 48c0-.26.11-.52.29-.71.38-.37 1.04-.37 1.42 0 .18.19.29.45.29.71 0 .26-.1.52-.29.71-.19.19-.45.29-.71.29zm-44 0c-.26 0-.52-.11-.71-.29-.18-.19-.29-.45-.29-.71 0-.26.11-.52.29-.71.37-.37 1.04-.37 1.42 0 .18.19.29.45.29.71 0 .26-.11.52-.29.71-.19.18-.45.29-.71.29zm0 4c-.26 0-.52-.11-.71-.29-.18-.19-.29-.45-.29-.71 0-.26.11-.52.29-.71.37-.37 1.04-.37 1.42 0 .18.19.29.45.29.71 0 .26-.11.52-.29.71-.19.18-.45.29-.71.29zm44 0c-.26 0-.52-.11-.71-.29A1.05 1.05 0 0153 52c0-.26.11-.52.29-.71.38-.37 1.04-.37 1.42 0 .18.19.29.45.29.71 0 .26-.11.52-.29.71-.19.18-.45.29-.71.29zM32 21c-.26 0-.52-.11-.71-.29A1.03 1.03 0 0131 20c0-.26.11-.52.29-.71.37-.37 1.05-.37 1.42 0a1.002 1.002 0 01-.01 1.42.99.99 0 01-.7.29z"/></svg>