<svg width="64" height="64" viewBox="0 0 64 64" fill="none" xmlns="http://www.w3.org/2000/svg">
<g clip-path="url(#clip0)">
<path d="M32.21 15.13L38 49L29 57L20 49L25.79 15.13H32.21Z" fill="#F74848"/>
<path d="M53.4468 64H10.5532C7.90528 64 5.69727 61.9453 5.52686 59.3223L2.01026 5.32227C1.92042 3.93555 2.39552 2.61182 3.34864 1.59473C4.29835 0.58105 5.64308 0 7.03712 0H56.9629C58.3569 0 59.7017 0.58105 60.6514 1.59473C61.6045 2.61182 62.0796 3.93555 61.9898 5.32227L58.4732 59.3232C58.3027 61.9453 56.0947 64 53.4468 64ZM7.03712 2C6.18116 2 5.38966 2.3418 4.80812 2.9624C4.23731 3.57178 3.95216 4.36377 4.00636 5.19238L7.52296 59.1924C7.62501 60.7666 8.95606 62 10.5532 62H53.4468C55.0439 62 56.375 60.7666 56.477 59.1934L59.9936 5.19238C60.0478 4.36377 59.7627 3.57177 59.1919 2.9624C58.6104 2.3418 57.8189 2 56.9629 2H7.03712Z" fill="#1D1B4C"/>
<path d="M15 17.9999C14.7959 17.9999 14.5938 17.9374 14.4224 17.8164C14.1577 17.6289 14 17.3247 14 16.9999V0.999949C14 0.447699 14.4477 -5.08288e-05 15 -5.08288e-05C15.5523 -5.08288e-05 16 0.447699 16 0.999949V15.5864L29.855 10.6967L17.4189 1.81391C16.9692 1.49262 16.8652 0.868109 17.186 0.418889C17.5073 -0.0317908 18.1318 -0.134821 18.5811 0.185979L32.5811 10.186C32.8848 10.4028 33.0425 10.7704 32.9902 11.1401C32.938 11.5092 32.6846 11.8188 32.333 11.9428L15.333 17.9428C15.2246 17.9814 15.1118 17.9999 15 17.9999Z" fill="#1D1B4C"/>
<path d="M49 17.9999C48.8882 17.9999 48.7754 17.9814 48.667 17.9428L31.667 11.9428C31.3154 11.8188 31.062 11.5092 31.0098 11.1401C30.9575 10.7704 31.1152 10.4028 31.419 10.186L45.419 0.185979C45.8662 -0.134821 46.4922 -0.0317908 46.814 0.418889C47.1348 0.868109 47.0308 1.49262 46.5811 1.81391L34.145 10.6967L48 15.5864V0.999939C48 0.447689 48.4478 -6.08224e-05 49 -6.08224e-05C49.5523 -6.08224e-05 50 0.447689 50 0.999939V16.9999C50 17.3246 49.8423 17.6288 49.5777 17.8163C49.4063 17.9374 49.2041 17.9999 49 17.9999Z" fill="#1D1B4C"/>
<path d="M32 55C31.7627 55 31.5249 54.916 31.3354 54.747L22.3354 46.747C22.0776 46.5175 21.9561 46.1718 22.0142 45.831L27.8042 11.9614C27.8975 11.4174 28.4102 11.0527 28.9585 11.144C29.5029 11.2373 29.8687 11.7539 29.7759 12.2983L24.0791 45.6211L32 52.6621L39.9209 45.6211L34.2241 12.2983C34.1313 11.7539 34.4971 11.2373 35.0415 11.144C35.5898 11.0537 36.103 11.4174 36.1958 11.9614L41.9858 45.831C42.0439 46.1718 41.9224 46.5175 41.6645 46.747L32.6645 54.747C32.4751 54.916 32.2373 55 32 55Z" fill="#1D1B4C"/>
<path d="M28 46C27.7398 46 27.48 45.8897 27.29 45.71C27.1099 45.5195 27 45.2598 27 45C27 44.7402 27.1099 44.4795 27.29 44.29C27.6597 43.9199 28.3398 43.9199 28.71 44.29C28.8897 44.4795 29 44.7295 29 45C29 45.2598 28.8897 45.5195 28.71 45.71C28.52 45.8897 28.2598 46 28 46Z" fill="#1D1B4C"/>
<path d="M32 42C31.7398 42 31.48 41.8897 31.29 41.71C31.1099 41.5195 31 41.2598 31 41C31 40.7402 31.1099 40.4795 31.29 40.29C31.6597 39.9199 32.3398 39.9199 32.71 40.29C32.8897 40.4795 33 40.7402 33 41C33 41.2598 32.8897 41.5195 32.71 41.71C32.52 41.8897 32.2598 42 32 42Z" fill="#1D1B4C"/>
<path d="M32 46C31.7398 46 31.48 45.8897 31.29 45.71C31.1099 45.5195 31 45.2598 31 45C31 44.7295 31.1099 44.4795 31.29 44.29C31.6699 43.9199 32.3398 43.9199 32.71 44.29C32.8897 44.4795 33 44.7402 33 45C33 45.2598 32.8897 45.5195 32.71 45.71C32.52 45.8897 32.27 46 32 46Z" fill="#1D1B4C"/>
<path d="M28 42C27.7398 42 27.48 41.8897 27.29 41.71C27.1099 41.5195 27 41.2598 27 41C27 40.7402 27.1099 40.4795 27.29 40.29C27.6597 39.9199 28.3398 39.9199 28.71 40.29C28.8897 40.4795 29 40.7402 29 41C29 41.2598 28.8897 41.5195 28.71 41.71C28.52 41.8897 28.27 42 28 42Z" fill="#1D1B4C"/>
<path d="M32 50C31.7398 50 31.48 49.8897 31.29 49.71C31.1099 49.5195 31 49.2598 31 49C31 48.7295 31.1099 48.4795 31.29 48.29C31.6597 47.9199 32.3398 47.9199 32.71 48.29C32.8897 48.4795 33 48.7402 33 49C33 49.2598 32.8897 49.5195 32.71 49.71C32.52 49.8897 32.2598 50 32 50Z" fill="#1D1B4C"/>
<path d="M36 46C35.73 46 35.48 45.8897 35.29 45.71C35.1099 45.5195 35 45.2598 35 45C35 44.7402 35.1099 44.4795 35.29 44.29C35.6597 43.9199 36.3398 43.9199 36.71 44.29C36.8897 44.4795 37 44.7402 37 45C37 45.2598 36.8897 45.5195 36.71 45.71C36.52 45.8897 36.2598 46 36 46Z" fill="#1D1B4C"/>
<path d="M36 42C35.7398 42 35.48 41.8897 35.29 41.71C35.1099 41.5195 35 41.2598 35 41C35 40.7402 35.1099 40.4795 35.29 40.29C35.6597 39.9199 36.3398 39.9199 36.71 40.29C36.8897 40.4795 37 40.7402 37 41C37 41.2598 36.8897 41.5195 36.71 41.71C36.52 41.8897 36.2598 42 36 42Z" fill="#1D1B4C"/>
<path d="M17.999 63.9999C17.4771 63.9999 17.0376 63.5946 17.0024 63.0663L15.0024 33.0663C14.9653 32.5155 15.3823 32.039 15.9336 32.0024C16.4712 31.956 16.9609 32.3818 16.9976 32.9335L18.9976 62.9335C19.0347 63.4843 18.6177 63.9609 18.0664 63.998C18.044 63.9989 18.0215 63.9999 17.999 63.9999Z" fill="#1D1B4C"/>
<path d="M46.001 63.9999C45.9785 63.9999 45.9561 63.9989 45.9336 63.9979C45.3823 63.9608 44.9653 63.4843 45.0024 62.9335L47.0024 32.9335C47.0391 32.3827 47.5166 31.9569 48.0664 32.0023C48.6177 32.039 49.0347 32.5155 48.9976 33.0663L46.9976 63.0663C46.9624 63.5946 46.523 63.9999 46.001 63.9999Z" fill="#1D1B4C"/>
<path d="M12.999 63.9999C12.4771 63.9999 12.0376 63.5947 12.0024 63.0664L11.3325 53.0664C11.2954 52.5156 11.7124 52.039 12.2632 52.0019C12.814 51.9824 13.291 52.3828 13.3276 52.9335L13.9976 62.9335C14.0347 63.4843 13.6177 63.9609 13.0669 63.998C13.044 63.999 13.0215 63.9999 12.999 63.9999Z" fill="#1D1B4C"/>
<path d="M51.001 63.9999C50.9785 63.9999 50.9561 63.999 50.9331 63.998C50.3823 63.9609 49.9653 63.4843 50.0024 62.9335L50.6724 52.9335C50.709 52.3828 51.1738 51.9824 51.7368 52.0019C52.2876 52.039 52.7046 52.5156 52.6675 53.0664L51.9976 63.0664C51.9624 63.5947 51.523 63.9999 51.001 63.9999Z" fill="#1D1B4C"/>
</g>
<defs>
<clipPath id="clip0">
<rect width="64" height="64" fill="white"/>
</clipPath>
</defs>
</svg>
