<svg width="64" height="64" viewBox="0 0 64 64" fill="none" xmlns="http://www.w3.org/2000/svg">
<path d="M12 22C13.1046 22 14 21.1046 14 20C14 18.8954 13.1046 18 12 18C10.8954 18 10 18.8954 10 20C10 21.1046 10.8954 22 12 22Z" fill="#F74848"/>
<path d="M23 22C24.1046 22 25 21.1046 25 20C25 18.8954 24.1046 18 23 18C21.8954 18 21 18.8954 21 20C21 21.1046 21.8954 22 23 22Z" fill="#F74848"/>
<path d="M34 22C35.1046 22 36 21.1046 36 20C36 18.8954 35.1046 18 34 18C32.8954 18 32 18.8954 32 20C32 21.1046 32.8954 22 34 22Z" fill="#F74848"/>
<path d="M45 22C46.1046 22 47 21.1046 47 20C47 18.8954 46.1046 18 45 18C43.8954 18 43 18.8954 43 20C43 21.1046 43.8954 22 45 22Z" fill="#F74848"/>
<path d="M56 22C57.1046 22 58 21.1046 58 20C58 18.8954 57.1046 18 56 18C54.8954 18 54 18.8954 54 20C54 21.1046 54.8954 22 56 22Z" fill="#F74848"/>
<path d="M22 27H10V39H22V27Z" fill="#F74848"/>
<path d="M59 56H5C2.24316 56 0 53.7568 0 51V17C0 14.2432 2.24316 12 5 12H59C61.7568 12 64 14.2432 64 17V51C64 53.7568 61.7568 56 59 56ZM5 14C3.3457 14 2 15.3457 2 17V51C2 52.6543 3.3457 54 5 54H59C60.6543 54 62 52.6543 62 51V17C62 15.3457 60.6543 14 59 14H5Z" fill="#1D1B4C"/>
<path d="M10 21C8.3457 21 7 19.6543 7 18C7 16.3457 8.3457 15 10 15C11.6543 15 13 16.3457 13 18C13 19.6543 11.6543 21 10 21ZM10 17C9.44824 17 9 17.4487 9 18C9 18.5513 9.44824 19 10 19C10.5518 19 11 18.5513 11 18C11 17.4487 10.5518 17 10 17Z" fill="#1D1B4C"/>
<path d="M21 21C19.3457 21 18 19.6543 18 18C18 16.3457 19.3457 15 21 15C22.6543 15 24 16.3457 24 18C24 19.6543 22.6543 21 21 21ZM21 17C20.4482 17 20 17.4487 20 18C20 18.5513 20.4482 19 21 19C21.5518 19 22 18.5513 22 18C22 17.4487 21.5518 17 21 17Z" fill="#1D1B4C"/>
<path d="M32 21C30.3457 21 29 19.6543 29 18C29 16.3457 30.3457 15 32 15C33.6543 15 35 16.3457 35 18C35 19.6543 33.6543 21 32 21ZM32 17C31.4482 17 31 17.4487 31 18C31 18.5513 31.4482 19 32 19C32.5518 19 33 18.5513 33 18C33 17.4487 32.5518 17 32 17Z" fill="#1D1B4C"/>
<path d="M43 21C41.3457 21 40 19.6543 40 18C40 16.3457 41.3457 15 43 15C44.6543 15 46 16.3457 46 18C46 19.6543 44.6543 21 43 21ZM43 17C42.4482 17 42 17.4487 42 18C42 18.5513 42.4482 19 43 19C43.5518 19 44 18.5513 44 18C44 17.4487 43.5518 17 43 17Z" fill="#1D1B4C"/>
<path d="M54 21C52.3457 21 51 19.6543 51 18C51 16.3457 52.3457 15 54 15C55.6543 15 57 16.3457 57 18C57 19.6543 55.6543 21 54 21ZM54 17C53.4482 17 53 17.4487 53 18C53 18.5513 53.4482 19 54 19C54.5518 19 55 18.5513 55 18C55 17.4487 54.5518 17 54 17Z" fill="#1D1B4C"/>
<path d="M10 17C9.44727 17 9 16.5522 9 16V10C9 9.44775 9.44727 9 10 9C10.5527 9 11 9.44775 11 10V16C11 16.5522 10.5527 17 10 17Z" fill="#1D1B4C"/>
<path d="M21 17C20.4473 17 20 16.5522 20 16V10C20 9.44775 20.4473 9 21 9C21.5527 9 22 9.44775 22 10V16C22 16.5522 21.5527 17 21 17Z" fill="#1D1B4C"/>
<path d="M32 17C31.4473 17 31 16.5522 31 16V10C31 9.44775 31.4473 9 32 9C32.5527 9 33 9.44775 33 10V16C33 16.5522 32.5527 17 32 17Z" fill="#1D1B4C"/>
<path d="M43 17C42.4473 17 42 16.5522 42 16V10C42 9.44775 42.4473 9 43 9C43.5527 9 44 9.44775 44 10V16C44 16.5522 43.5527 17 43 17Z" fill="#1D1B4C"/>
<path d="M54 17C53.4473 17 53 16.5522 53 16V10C53 9.44775 53.4473 9 54 9C54.5527 9 55 9.44775 55 10V16C55 16.5522 54.5527 17 54 17Z" fill="#1D1B4C"/>
<path d="M20 38H8C7.44727 38 7 37.5522 7 37V25C7 24.4477 7.44727 24 8 24H20C20.5527 24 21 24.4477 21 25V37C21 37.5522 20.5527 38 20 38ZM9 36H19V26H9V36Z" fill="#1D1B4C"/>
<path d="M53 26H25C24.4473 26 24 25.5523 24 25C24 24.4477 24.4473 24 25 24H53C53.5527 24 54 24.4477 54 25C54 25.5523 53.5527 26 53 26Z" fill="#1D1B4C"/>
<path d="M53 32H25C24.4473 32 24 31.5523 24 31C24 30.4477 24.4473 30 25 30H53C53.5527 30 54 30.4477 54 31C54 31.5523 53.5527 32 53 32Z" fill="#1D1B4C"/>
<path d="M53 38H25C24.4473 38 24 37.5523 24 37C24 36.4477 24.4473 36 25 36H53C53.5527 36 54 36.4477 54 37C54 37.5523 53.5527 38 53 38Z" fill="#1D1B4C"/>
<path d="M53 44H8C7.44727 44 7 43.5523 7 43C7 42.4477 7.44727 42 8 42H53C53.5527 42 54 42.4477 54 43C54 43.5523 53.5527 44 53 44Z" fill="#1D1B4C"/>
<path d="M8 50C7.72949 50 7.47949 49.8897 7.29004 49.71C7.10938 49.52 7 49.2598 7 49C7 48.7398 7.10938 48.48 7.29004 48.29C7.66016 47.9199 8.33008 47.9199 8.70996 48.29C8.88965 48.48 9 48.7398 9 49C9 49.2598 8.89941 49.52 8.70996 49.71C8.51953 49.8897 8.25977 50 8 50Z" fill="#1D1B4C"/>
<path d="M12 50C11.7402 50 11.4795 49.8897 11.29 49.71C11.0996 49.52 11 49.2598 11 49C11 48.7398 11.0996 48.48 11.29 48.29C11.6699 47.9199 12.3398 47.9199 12.71 48.29C12.8896 48.48 13 48.7398 13 49C13 49.2598 12.8896 49.52 12.71 49.71C12.5195 49.8897 12.2598 50 12 50Z" fill="#1D1B4C"/>
<path d="M16 50C15.7402 50 15.4795 49.8897 15.29 49.71C15.1094 49.52 15 49.2598 15 49C15 48.7398 15.1094 48.48 15.29 48.29C15.6699 47.9199 16.3301 47.9199 16.71 48.29C16.8897 48.48 17 48.7398 17 49C17 49.2598 16.8897 49.52 16.71 49.71C16.5195 49.8897 16.2598 50 16 50Z" fill="#1D1B4C"/>
<path d="M20 50C19.7402 50 19.4795 49.8897 19.29 49.71C19.1094 49.52 19 49.2598 19 49C19 48.7398 19.1094 48.48 19.29 48.29C19.6602 47.9199 20.3301 47.9199 20.71 48.29C20.8897 48.48 21 48.7398 21 49C21 49.2598 20.8897 49.52 20.71 49.71C20.5195 49.8897 20.2598 50 20 50Z" fill="#1D1B4C"/>
<path d="M24 50C23.7295 50 23.4795 49.8897 23.29 49.71C23.1094 49.52 23 49.27 23 49C23 48.73 23.1094 48.48 23.29 48.29C23.6602 47.9199 24.3301 47.9199 24.71 48.29C24.8897 48.48 25 48.7398 25 49C25 49.2598 24.8897 49.52 24.71 49.71C24.5195 49.8897 24.2598 50 24 50Z" fill="#1D1B4C"/>
<path d="M28 50C27.7402 50 27.4795 49.8897 27.29 49.71C27.1094 49.52 27 49.2598 27 49C27 48.73 27.1094 48.48 27.29 48.29C27.6602 47.9199 28.3301 47.9199 28.71 48.29C28.8897 48.48 29 48.7398 29 49C29 49.2598 28.8897 49.52 28.71 49.71C28.5195 49.8897 28.2598 50 28 50Z" fill="#1D1B4C"/>
<path d="M32 50C31.7402 50 31.4795 49.8897 31.29 49.71C31.1094 49.52 31 49.2598 31 49C31 48.73 31.1094 48.48 31.29 48.29C31.6602 47.9199 32.3301 47.9199 32.71 48.29C32.8897 48.48 33 48.7398 33 49C33 49.2598 32.8897 49.52 32.71 49.71C32.5195 49.8897 32.2598 50 32 50Z" fill="#1D1B4C"/>
<path d="M36 50C35.7402 50 35.4795 49.8897 35.29 49.71C35.1094 49.52 35 49.27 35 49C35 48.7398 35.1094 48.48 35.29 48.29C35.6699 47.9199 36.3301 47.9199 36.71 48.29C36.8897 48.48 37 48.7398 37 49C37 49.2598 36.8897 49.52 36.71 49.71C36.5195 49.8897 36.2598 50 36 50Z" fill="#1D1B4C"/>
<path d="M40 50C39.7402 50 39.4795 49.8897 39.29 49.71C39.1094 49.52 39 49.2598 39 49C39 48.7398 39.1094 48.48 39.29 48.29C39.6602 47.9199 40.3398 47.9199 40.71 48.29C40.8897 48.48 41 48.7398 41 49C41 49.2598 40.8896 49.52 40.7002 49.71C40.5195 49.8897 40.2695 50 40 50Z" fill="#1D1B4C"/>
<path d="M44 50C43.7295 50 43.4795 49.8897 43.29 49.71C43.1094 49.52 43 49.2598 43 49C43 48.7398 43.1094 48.48 43.29 48.29C43.6602 47.9199 44.3398 47.9199 44.71 48.29C44.8897 48.48 45 48.7398 45 49C45 49.2598 44.8897 49.52 44.71 49.71C44.5195 49.8897 44.2598 50 44 50Z" fill="#1D1B4C"/>
<path d="M48 50C47.7402 50 47.4795 49.8897 47.29 49.71C47.1094 49.52 47 49.27 47 49C47 48.7398 47.1094 48.48 47.29 48.29C47.6602 47.9199 48.3398 47.9199 48.71 48.29C48.8897 48.48 49 48.7398 49 49C49 49.27 48.8897 49.52 48.71 49.71C48.5195 49.8897 48.2695 50 48 50Z" fill="#1D1B4C"/>
<path d="M52 50C51.7402 50 51.4795 49.8897 51.29 49.71C51.1094 49.52 51 49.27 51 49C51 48.7398 51.1094 48.48 51.29 48.29C51.6699 47.9199 52.3398 47.9199 52.71 48.29C52.8994 48.48 53 48.7398 53 49C53 49.2598 52.8994 49.52 52.71 49.71C52.5195 49.8897 52.2598 50 52 50Z" fill="#1D1B4C"/>
<path d="M56 50C55.7295 50 55.4795 49.8897 55.29 49.71C55.1094 49.52 55 49.2598 55 49C55 48.7398 55.1094 48.48 55.29 48.29C55.6602 47.9199 56.3301 47.9199 56.71 48.29C56.8897 48.48 57 48.7398 57 49C57 49.2598 56.8897 49.52 56.71 49.71C56.5195 49.8897 56.2598 50 56 50Z" fill="#1D1B4C"/>
<path d="M56 44C55.7295 44 55.4795 43.8897 55.29 43.71C55.1094 43.52 55 43.2598 55 43C55 42.7398 55.1094 42.48 55.29 42.29C55.6602 41.9199 56.3301 41.9199 56.71 42.29C56.8897 42.48 57 42.7398 57 43C57 43.2598 56.8897 43.52 56.71 43.71C56.5195 43.8897 56.2598 44 56 44Z" fill="#1D1B4C"/>
<path d="M56 38C55.7295 38 55.4795 37.8897 55.29 37.71C55.1094 37.52 55 37.2598 55 37C55 36.7398 55.1094 36.48 55.29 36.29C55.6602 35.9199 56.3301 35.9199 56.71 36.29C56.8897 36.48 57 36.7398 57 37C57 37.2598 56.8897 37.52 56.71 37.71C56.5195 37.8897 56.2598 38 56 38Z" fill="#1D1B4C"/>
<path d="M56 32C55.7295 32 55.4795 31.8897 55.29 31.71C55.1094 31.52 55 31.2598 55 31C55 30.7398 55.1094 30.48 55.29 30.29C55.6602 29.9199 56.3301 29.9199 56.71 30.29C56.8897 30.48 57 30.7398 57 31C57 31.2598 56.8897 31.52 56.71 31.71C56.5195 31.8897 56.2598 32 56 32Z" fill="#1D1B4C"/>
<path d="M56 26C55.7295 26 55.4795 25.8897 55.29 25.71C55.1094 25.52 55 25.2598 55 25C55 24.7398 55.1094 24.48 55.29 24.29C55.6602 23.9199 56.3301 23.9199 56.71 24.29C56.8897 24.48 57 24.7398 57 25C57 25.2598 56.8897 25.52 56.71 25.71C56.5195 25.8897 56.2598 26 56 26Z" fill="#1D1B4C"/>
</svg>
