<svg width="64" height="64" viewBox="0 0 64 64" fill="none" xmlns="http://www.w3.org/2000/svg">
<path d="M42 8H12C11.4477 8 11 7.55225 11 7C11 6.44775 11.4477 6 12 6H42C42.5522 6 43 6.44775 43 7C43 7.55225 42.5522 8 42 8Z" fill="#F74848"/>
<path d="M42 14H12C11.4477 14 11 13.5523 11 13C11 12.4477 11.4477 12 12 12H42C42.5522 12 43 12.4477 43 13C43 13.5523 42.5522 14 42 14Z" fill="#F74848"/>
<path d="M52 20H12C11.4477 20 11 19.5523 11 19C11 18.4477 11.4477 18 12 18H52C52.5522 18 53 18.4477 53 19C53 19.5523 52.5522 20 52 20Z" fill="#F74848"/>
<path d="M52 26H12C11.4477 26 11 25.5523 11 25C11 24.4477 11.4477 24 12 24H52C52.5522 24 53 24.4477 53 25C53 25.5523 52.5522 26 52 26Z" fill="#F74848"/>
<path d="M19 32H12C11.4477 32 11 31.5523 11 31C11 30.4477 11.4477 30 12 30H19C19.5522 30 20 30.4477 20 31C20 31.5523 19.5522 32 19 32Z" fill="#F74848"/>
<path d="M27 32C26.7398 32 26.48 31.8897 26.29 31.71C26.1099 31.52 26 31.2598 26 31C26 30.73 26.1099 30.48 26.29 30.29C26.6597 29.9199 27.3296 29.9199 27.71 30.29C27.8897 30.48 28 30.7398 28 31C28 31.2598 27.8897 31.52 27.71 31.71C27.52 31.8897 27.2598 32 27 32Z" fill="#F74848"/>
<path d="M31 32C30.7398 32 30.48 31.8897 30.29 31.71C30.1099 31.52 30 31.2598 30 31C30 30.73 30.1099 30.48 30.29 30.29C30.6597 29.9199 31.3398 29.9199 31.71 30.29C31.8897 30.48 32 30.73 32 31C32 31.2598 31.8897 31.52 31.71 31.71C31.52 31.8897 31.2598 32 31 32Z" fill="#F74848"/>
<path d="M23 32C22.7398 32 22.48 31.8897 22.29 31.71C22.1099 31.52 22 31.2598 22 31C22 30.7398 22.1099 30.48 22.29 30.29C22.6597 29.9199 23.3398 29.9199 23.71 30.29C23.8897 30.48 24 30.7398 24 31C24 31.2598 23.8897 31.52 23.71 31.71C23.52 31.8897 23.2598 32 23 32Z" fill="#F74848"/>
<path d="M41 47C45.4183 47 49 43.4183 49 39C49 34.5817 45.4183 31 41 31C36.5817 31 33 34.5817 33 39C33 43.4183 36.5817 47 41 47Z" fill="#F74848"/>
<path d="M63 41H51.4199C50.8677 41 50.4199 40.5522 50.4199 40C50.4199 39.4478 50.8677 39 51.4199 39H62V11.4141L52.5859 2H2V39H36.5801C37.1323 39 37.5801 39.4478 37.5801 40C37.5801 40.5522 37.1323 41 36.5801 41H1C0.44775 41 0 40.5522 0 40V1C0 0.44775 0.44775 0 1 0H53C53.2651 0 53.5195 0.10547 53.707 0.29297L63.707 10.293C63.8945 10.4805 64 10.7349 64 11V40C64 40.5522 63.5522 41 63 41Z" fill="#1D1B4C"/>
<path d="M63 12H53C52.4477 12 52 11.5522 52 11V1C52 0.44775 52.4477 0 53 0C53.5523 0 54 0.44775 54 1V10H63C63.5522 10 64 10.4478 64 11C64 11.5522 63.5522 12 63 12Z" fill="#1D1B4C"/>
<path d="M44 46C39.0376 46 35 41.9624 35 37C35 32.0376 39.0376 28 44 28C48.9624 28 53 32.0376 53 37C53 41.9624 48.9624 46 44 46ZM44 30C40.1401 30 37 33.1401 37 37C37 40.8599 40.1401 44 44 44C47.8599 44 51 40.8599 51 37C51 33.1401 47.8599 30 44 30Z" fill="#1D1B4C"/>
<path d="M44 42C41.2432 42 39 39.7568 39 37C39 34.2432 41.2432 32 44 32C46.7568 32 49 34.2432 49 37C49 39.7568 46.7568 42 44 42ZM44 34C42.3457 34 41 35.3457 41 37C41 38.6543 42.3457 40 44 40C45.6543 40 47 38.6543 47 37C47 35.3457 45.6543 34 44 34Z" fill="#1D1B4C"/>
<path d="M49.9995 63C49.6187 63 49.2671 62.7822 49.0991 62.4346L44 51.8618L38.9009 62.4346C38.7202 62.8086 38.3242 63.0322 37.9146 62.9966C37.501 62.9609 37.1524 62.6738 37.0386 62.2749L35.3887 56.501L29.4961 59.8682C29.1109 60.0893 28.6275 60.0283 28.3072 59.7212C27.9873 59.4141 27.9082 58.9326 28.1123 58.5391L36.9121 41.5889C37.1665 41.0986 37.7696 40.9077 38.2608 41.1621C38.7505 41.417 38.9419 42.0205 38.6875 42.5107L31.4522 56.4472L35.5039 54.1318C35.77 53.979 36.0923 53.958 36.377 54.0737C36.6617 54.1894 36.877 54.4297 36.9615 54.7251L38.2403 59.2002L43.0992 49.1255C43.4331 48.4341 44.5669 48.4341 44.9009 49.1255L49.7598 59.2002L51.0386 54.7251C51.1231 54.4297 51.3384 54.1894 51.6231 54.0737C51.9063 53.958 52.2295 53.979 52.4961 54.1318L56.459 56.3965L49.1104 42.7744C48.8482 42.2886 49.0293 41.6821 49.5157 41.4199C50.0015 41.1577 50.6084 41.3384 50.8702 41.8252L59.8799 58.5254C60.0923 58.918 60.0181 59.4038 59.6983 59.7158C59.3789 60.0264 58.8912 60.0898 58.5039 59.8681L52.6114 56.501L50.9615 62.2749C50.8477 62.6738 50.4991 62.9609 50.0855 62.9966C50.0567 62.999 50.0283 63 49.9995 63Z" fill="#1D1B4C"/>
<path d="M42 9H12C11.4477 9 11 8.55225 11 8C11 7.44775 11.4477 7 12 7H42C42.5522 7 43 7.44775 43 8C43 8.55225 42.5522 9 42 9Z" fill="#1D1B4C"/>
<path d="M42 15H12C11.4477 15 11 14.5523 11 14C11 13.4477 11.4477 13 12 13H42C42.5522 13 43 13.4477 43 14C43 14.5523 42.5522 15 42 15Z" fill="#1D1B4C"/>
<path d="M52 21H12C11.4477 21 11 20.5523 11 20C11 19.4477 11.4477 19 12 19H52C52.5522 19 53 19.4477 53 20C53 20.5523 52.5522 21 52 21Z" fill="#1D1B4C"/>
<path d="M52 27H12C11.4477 27 11 26.5523 11 26C11 25.4477 11.4477 25 12 25H52C52.5522 25 53 25.4477 53 26C53 26.5523 52.5522 27 52 27Z" fill="#1D1B4C"/>
<path d="M19 33H12C11.4477 33 11 32.5523 11 32C11 31.4477 11.4477 31 12 31H19C19.5522 31 20 31.4477 20 32C20 32.5523 19.5522 33 19 33Z" fill="#1D1B4C"/>
<path d="M27 33C26.7398 33 26.48 32.8897 26.29 32.71C26.1099 32.52 26 32.27 26 32C26 31.7398 26.1099 31.48 26.29 31.29C26.6597 30.9199 27.3296 30.9199 27.71 31.29C27.8897 31.48 28 31.7398 28 32C28 32.2598 27.8897 32.52 27.71 32.71C27.52 32.8897 27.2598 33 27 33Z" fill="#1D1B4C"/>
<path d="M31 33C30.7398 33 30.48 32.8897 30.29 32.71C30.1099 32.52 30 32.2598 30 32C30 31.73 30.1099 31.48 30.29 31.29C30.6597 30.9199 31.3398 30.9199 31.71 31.29C31.8897 31.48 32 31.73 32 32C32 32.2598 31.8897 32.52 31.71 32.71C31.52 32.8897 31.2598 33 31 33Z" fill="#1D1B4C"/>
<path d="M44 38C43.7398 38 43.48 37.8897 43.29 37.71C43.1099 37.52 43 37.2598 43 37C43 36.7398 43.1099 36.48 43.29 36.29C43.6597 35.9199 44.3296 35.9199 44.71 36.29C44.8897 36.48 45 36.7398 45 37C45 37.2598 44.8897 37.52 44.71 37.71C44.52 37.8897 44.2598 38 44 38Z" fill="#1D1B4C"/>
<path d="M23 33C22.7398 33 22.48 32.8897 22.29 32.71C22.1099 32.52 22 32.27 22 32C22 31.73 22.1099 31.48 22.29 31.29C22.6597 30.9199 23.3398 30.9199 23.71 31.29C23.8897 31.48 24 31.7398 24 32C24 32.2598 23.8897 32.52 23.71 32.71C23.52 32.8897 23.2598 33 23 33Z" fill="#1D1B4C"/>
</svg>
