<svg width="64" height="64" viewBox="0 0 64 64" fill="none" xmlns="http://www.w3.org/2000/svg">
<path d="M30 38C32.2091 38 34 36.2091 34 34C34 31.7909 32.2091 30 30 30C27.7908 30 26 31.7909 26 34C26 36.2091 27.7908 38 30 38Z" fill="#F74848"/>
<path d="M33 61C35.2091 61 37 59.2091 37 57C37 54.7909 35.2091 53 33 53C30.7908 53 29 54.7909 29 57C29 59.2091 30.7908 61 33 61Z" fill="#F74848"/>
<path d="M57 48C59.2091 48 61 46.2091 61 44C61 41.7909 59.2091 40 57 40C54.7908 40 53 41.7909 53 44C53 46.2091 54.7908 48 57 48Z" fill="#F74848"/>
<path d="M8.99998 48C11.2091 48 13 46.2091 13 44C13 41.7909 11.2091 40 8.99998 40C6.79085 40 4.99998 41.7909 4.99998 44C4.99998 46.2091 6.79085 48 8.99998 48Z" fill="#F74848"/>
<path d="M30 11C32.2091 11 34 9.20914 34 7C34 4.79086 32.2091 3 30 3C27.7908 3 26 4.79086 26 7C26 9.20914 27.7908 11 30 11Z" fill="#F74848"/>
<path d="M54 24C56.2091 24 58 22.2091 58 20C58 17.7909 56.2091 16 54 16C51.7908 16 50 17.7909 50 20C50 22.2091 51.7908 24 54 24Z" fill="#F74848"/>
<path d="M5.99998 24C8.20912 24 9.99998 22.2091 9.99998 20C9.99998 17.7909 8.20912 16 5.99998 16C3.79085 16 1.99998 17.7909 1.99998 20C1.99998 22.2091 3.79085 24 5.99998 24Z" fill="#F74848"/>
<path d="M7.99998 43C7.44773 43 6.99998 42.5527 6.99998 42V22C6.99998 21.4473 7.44773 21 7.99998 21C8.55223 21 8.99998 21.4473 8.99998 22V42C8.99998 42.5527 8.55223 43 7.99998 43Z" fill="#1D1B4C"/>
<path d="M11.4512 16.9903C11.1069 16.9903 10.7725 16.8125 10.5864 16.4942C10.3081 16.0176 10.4692 15.4053 10.9463 15.127L27.686 5.35647C28.1621 5.07717 28.7759 5.23928 29.0537 5.71585C29.332 6.19241 29.1709 6.80472 28.6938 7.08304L11.9541 16.8536C11.7959 16.9463 11.6221 16.9903 11.4512 16.9903Z" fill="#1D1B4C"/>
<path d="M56 43C55.4477 43 55 42.5527 55 42V22C55 21.4473 55.4477 21 56 21C56.5522 21 57 21.4473 57 22V42C57 42.5527 56.5522 43 56 43Z" fill="#1D1B4C"/>
<path d="M28.1889 58.7803C28.0176 58.7803 27.8442 58.7363 27.686 58.6436L10.9463 48.873C10.4692 48.5947 10.3081 47.9824 10.5864 47.5059C10.8647 47.0283 11.4775 46.8672 11.9541 47.1465L28.6938 56.917C29.1709 57.1953 29.332 57.8076 29.0537 58.2842C28.8677 58.6025 28.5327 58.7803 28.1889 58.7803Z" fill="#1D1B4C"/>
<path d="M35.811 58.7802C35.4668 58.7802 35.1323 58.6025 34.9463 58.2842C34.668 57.8076 34.8291 57.1953 35.3061 56.917L52.0459 47.1465C52.5224 46.8662 53.1357 47.0293 53.4136 47.5058C53.6919 47.9824 53.5308 48.5947 53.0537 48.873L36.314 58.6435C36.1557 58.7363 35.9819 58.7802 35.811 58.7802Z" fill="#1D1B4C"/>
<path d="M52.5488 16.9902C52.3774 16.9902 52.2041 16.9463 52.0459 16.8535L35.3061 7.08298C34.8291 6.80466 34.668 6.19235 34.9463 5.71579C35.2246 5.23923 35.8369 5.07614 36.314 5.35641L53.0537 15.1269C53.5308 15.4052 53.6919 16.0176 53.4136 16.4941C53.2275 16.8125 52.8926 16.9902 52.5488 16.9902Z" fill="#1D1B4C"/>
<path d="M32 10C29.2431 10 27 7.75684 27 5C27 2.24316 29.2431 0 32 0C34.7568 0 37 2.24316 37 5C37 7.75684 34.7568 10 32 10ZM32 2C30.3457 2 29 3.3457 29 5C29 6.6543 30.3457 8 32 8C33.6543 8 35 6.6543 35 5C35 3.3457 33.6543 2 32 2Z" fill="#1D1B4C"/>
<path d="M32 64C29.2431 64 27 61.7568 27 59C27 56.2432 29.2431 54 32 54C34.7568 54 37 56.2432 37 59C37 61.7568 34.7568 64 32 64ZM32 56C30.3457 56 29 57.3457 29 59C29 60.6543 30.3457 62 32 62C33.6543 62 35 60.6543 35 59C35 57.3457 33.6543 56 32 56Z" fill="#1D1B4C"/>
<path d="M56 51C53.2431 51 51 48.7568 51 46C51 43.2432 53.2431 41 56 41C58.7568 41 61 43.2432 61 46C61 48.7568 58.7568 51 56 51ZM56 43C54.3457 43 53 44.3457 53 46C53 47.6543 54.3457 49 56 49C57.6543 49 59 47.6543 59 46C59 44.3457 57.6543 43 56 43Z" fill="#1D1B4C"/>
<path d="M56 23C53.2431 23 51 20.7568 51 18C51 15.2432 53.2431 13 56 13C58.7568 13 61 15.2432 61 18C61 20.7568 58.7568 23 56 23ZM56 15C54.3457 15 53 16.3457 53 18C53 19.6543 54.3457 21 56 21C57.6543 21 59 19.6543 59 18C59 16.3457 57.6543 15 56 15Z" fill="#1D1B4C"/>
<path d="M7.99998 23C5.24314 23 2.99998 20.7568 2.99998 18C2.99998 15.2432 5.24314 13 7.99998 13C10.7568 13 13 15.2432 13 18C13 20.7568 10.7568 23 7.99998 23ZM7.99998 15C6.34568 15 4.99998 16.3457 4.99998 18C4.99998 19.6543 6.34568 21 7.99998 21C9.65428 21 11 19.6543 11 18C11 16.3457 9.65428 15 7.99998 15Z" fill="#1D1B4C"/>
<path d="M7.99998 51C5.24314 51 2.99998 48.7568 2.99998 46C2.99998 43.2432 5.24314 41 7.99998 41C10.7568 41 13 43.2432 13 46C13 48.7568 10.7568 51 7.99998 51ZM7.99998 43C6.34568 43 4.99998 44.3457 4.99998 46C4.99998 47.6543 6.34568 49 7.99998 49C9.65428 49 11 47.6543 11 46C11 44.3457 9.65428 43 7.99998 43Z" fill="#1D1B4C"/>
<path d="M32 56C31.4477 56 31 55.5527 31 55V36C31 35.4473 31.4477 35 32 35C32.5522 35 33 35.4473 33 36V55C33 55.5527 32.5522 56 32 56Z" fill="#1D1B4C"/>
<path d="M32 29C31.4477 29 31 28.5527 31 28V9C31 8.44727 31.4477 8 32 8C32.5522 8 33 8.44727 33 9V28C33 28.5527 32.5522 29 32 29Z" fill="#1D1B4C"/>
<path d="M28.5488 30.9902C28.3774 30.9902 28.2041 30.9462 28.0459 30.8535L10.9463 20.873C10.4692 20.5947 10.3081 19.9824 10.5864 19.5058C10.8647 19.0283 11.4775 18.8662 11.9541 19.1464L29.0537 29.1269C29.5308 29.4052 29.6919 30.0175 29.4136 30.4941C29.2275 30.8125 28.8926 30.9902 28.5488 30.9902Z" fill="#1D1B4C"/>
<path d="M35.4512 30.9902C35.1069 30.9902 34.7724 30.8125 34.5864 30.4941C34.3081 30.0176 34.4692 29.4052 34.9463 29.1269L52.0459 19.1465C52.5224 18.8662 53.1357 19.0293 53.4136 19.5058C53.6919 19.9824 53.5307 20.5947 53.0537 20.873L35.9541 30.8535C35.7959 30.9463 35.6221 30.9902 35.4512 30.9902Z" fill="#1D1B4C"/>
<path d="M52.5488 44.9902C52.3774 44.9902 52.2041 44.9463 52.0459 44.8535L34.9463 34.873C34.4692 34.5947 34.3081 33.9824 34.5864 33.5059C34.8647 33.0283 35.4775 32.8672 35.9541 33.1465L53.0537 43.1269C53.5308 43.4053 53.6919 44.0176 53.4136 44.4941C53.2275 44.8125 52.8926 44.9902 52.5488 44.9902Z" fill="#1D1B4C"/>
<path d="M11.4512 44.9902C11.1069 44.9902 10.7725 44.8125 10.5864 44.4941C10.3081 44.0176 10.4692 43.4052 10.9463 43.1269L28.0459 33.1465C28.5229 32.8662 29.1352 33.0293 29.4136 33.5058C29.6919 33.9824 29.5308 34.5947 29.0537 34.873L11.9541 44.8535C11.7959 44.9463 11.6221 44.9902 11.4512 44.9902Z" fill="#1D1B4C"/>
<path d="M32 37C29.2431 37 27 34.7568 27 32C27 29.2432 29.2431 27 32 27C34.7568 27 37 29.2432 37 32C37 34.7568 34.7568 37 32 37ZM32 29C30.3457 29 29 30.3457 29 32C29 33.6543 30.3457 35 32 35C33.6543 35 35 33.6543 35 32C35 30.3457 33.6543 29 32 29Z" fill="#1D1B4C"/>
<path d="M10.019 43.5498C9.84763 43.5498 9.67381 43.5059 9.51463 43.4131C9.03807 43.1338 8.87791 42.5215 9.15721 42.0449L29.1172 7.94532C29.396 7.46778 30.0063 7.30762 30.4853 7.58692C30.9619 7.86622 31.122 8.47852 30.8427 8.95508L10.8828 43.0547C10.6968 43.3731 10.3628 43.5498 10.019 43.5498Z" fill="#1D1B4C"/>
<path d="M53.9809 43.5498C53.6372 43.5498 53.3032 43.373 53.1172 43.0546L33.1572 8.95504C32.8779 8.47848 33.0381 7.86617 33.5146 7.58688C33.9936 7.30856 34.604 7.46872 34.8828 7.94528L54.8428 42.0449C55.1221 42.5214 54.9619 43.1338 54.4853 43.413C54.3262 43.5058 54.1523 43.5498 53.9809 43.5498Z" fill="#1D1B4C"/>
<path d="M52 47H12C11.4477 47 11 46.5527 11 46C11 45.4473 11.4477 45 12 45H52C52.5522 45 53 45.4473 53 46C53 46.5527 52.5522 47 52 47Z" fill="#1D1B4C"/>
</svg>
