<svg width="64" height="64" viewBox="0 0 64 64" fill="none" xmlns="http://www.w3.org/2000/svg">
<path d="M41 60H27V49C27 45.134 30.134 42 34 42C37.866 42 41 45.134 41 49V60Z" fill="#F74848"/>
<path d="M62 24L56 6H10L4 24H26.5L33 18L39.5 24H62Z" fill="#F74848"/>
<path d="M63 63H1C0.44727 63 0 62.5527 0 62C0 61.4473 0.44727 61 1 61H63C63.5527 61 64 61.4473 64 62C64 62.5527 63.5527 63 63 63Z" fill="#1D1B4C"/>
<path d="M56 63H8C7.44727 63 7 62.5527 7 62V20C7 19.4473 7.44727 19 8 19C8.55273 19 9 19.4473 9 20V61H55V20C55 19.4473 55.4473 19 56 19C56.5527 19 57 19.4473 57 20V62C57 62.5527 56.5527 63 56 63Z" fill="#1D1B4C"/>
<path d="M61 21H38.5C38.249 21 38.0068 20.9053 37.8213 20.7344L32 15.3613L26.1787 20.7344C25.9932 20.9053 25.751 21 25.5 21H3C2.44727 21 2 20.5527 2 20C2 19.4473 2.44727 19 3 19H25.1094L31.3213 13.2656C31.7061 12.9121 32.294 12.9121 32.6787 13.2656L38.8906 19H61C61.5527 19 62 19.4473 62 20C62 20.5527 61.5527 21 61 21Z" fill="#1D1B4C"/>
<path d="M61 21C60.5811 21 60.1914 20.7353 60.0518 20.3164L54.2793 3H9.7207L3.94824 20.3164C3.77344 20.8398 3.21289 21.1231 2.68359 20.9482C2.16015 20.7744 1.87695 20.208 2.05175 19.6836L8.05175 1.6836C8.1875 1.27539 8.56934 1 9 1H55C55.4307 1 55.8125 1.27539 55.9482 1.68359L61.9482 19.6836C62.123 20.208 61.8398 20.7744 61.3164 20.9482C61.2109 20.9834 61.1045 21 61 21Z" fill="#1D1B4C"/>
<path d="M39 63H25C24.4473 63 24 62.5527 24 62V51C24 46.5889 27.5889 43 32 43C36.4111 43 40 46.5889 40 51V62C40 62.5527 39.5527 63 39 63ZM26 61H38V51C38 47.6914 35.3086 45 32 45C28.6914 45 26 47.6914 26 51V61Z" fill="#1D1B4C"/>
<path d="M20 41H14C13.4473 41 13 40.5527 13 40V31C13 30.4473 13.4473 30 14 30H20C20.5527 30 21 30.4473 21 31V40C21 40.5527 20.5527 41 20 41ZM15 39H19V32H15V39Z" fill="#1D1B4C"/>
<path d="M20 56H14C13.4473 56 13 55.5527 13 55V46C13 45.4473 13.4473 45 14 45H20C20.5527 45 21 45.4473 21 46V55C21 55.5527 20.5527 56 20 56ZM15 54H19V47H15V54Z" fill="#1D1B4C"/>
<path d="M50 41H44C43.4473 41 43 40.5527 43 40V31C43 30.4473 43.4473 30 44 30H50C50.5527 30 51 30.4473 51 31V40C51 40.5527 50.5527 41 50 41ZM45 39H49V32H45V39Z" fill="#1D1B4C"/>
<path d="M50 56H44C43.4473 56 43 55.5527 43 55V46C43 45.4473 43.4473 45 44 45H50C50.5527 45 51 45.4473 51 46V55C51 55.5527 50.5527 56 50 56ZM45 54H49V47H45V54Z" fill="#1D1B4C"/>
<path d="M32 32C28.6914 32 26 29.3086 26 26C26 22.6914 28.6914 20 32 20C35.3086 20 38 22.6914 38 26C38 29.3086 35.3086 32 32 32ZM32 22C29.794 22 28 23.794 28 26C28 28.206 29.794 30 32 30C34.206 30 36 28.206 36 26C36 23.794 34.206 22 32 22Z" fill="#1D1B4C"/>
<path d="M32 37C31.7402 37 31.4795 36.8897 31.29 36.71C31.1094 36.5195 31 36.2598 31 36C31 35.7295 31.1094 35.4795 31.29 35.29C31.6699 34.9199 32.3301 34.9199 32.71 35.29C32.8897 35.4795 33 35.7402 33 36C33 36.2598 32.8897 36.5195 32.71 36.71C32.5195 36.8897 32.2598 37 32 37Z" fill="#1D1B4C"/>
<path d="M32 41C31.7402 41 31.4795 40.8897 31.29 40.71C31.1094 40.5195 31 40.2598 31 40C31 39.7295 31.1094 39.4795 31.29 39.2901C31.6602 38.9297 32.3398 38.9199 32.71 39.2901C32.8897 39.4795 33 39.7295 33 40C33 40.2598 32.8897 40.5195 32.71 40.71C32.5195 40.8897 32.2598 41 32 41Z" fill="#1D1B4C"/>
<path d="M36 37C35.7402 37 35.4795 36.8897 35.29 36.71C35.1094 36.5195 35 36.2598 35 36C35 35.7402 35.1094 35.4795 35.29 35.29C35.6699 34.9199 36.3398 34.9199 36.71 35.29C36.8897 35.4795 37 35.7402 37 36C37 36.2598 36.8896 36.5195 36.7002 36.71C36.5195 36.8897 36.2695 37 36 37Z" fill="#1D1B4C"/>
<path d="M36 41C35.7402 41 35.4795 40.8897 35.29 40.71C35.1094 40.5195 35 40.2598 35 40C35 39.7295 35.1094 39.4697 35.29 39.29C35.6602 38.9199 36.3398 38.9199 36.71 39.29C36.8897 39.4795 37 39.7295 37 40C37 40.2598 36.8897 40.5195 36.71 40.71C36.5195 40.8897 36.2598 41 36 41Z" fill="#1D1B4C"/>
<path d="M28 37C27.7402 37 27.4795 36.8897 27.29 36.71C27.1094 36.5195 27 36.2598 27 36C27 35.7402 27.1094 35.4795 27.29 35.29C27.6699 34.9199 28.3301 34.9199 28.71 35.29C28.8897 35.4795 29 35.7402 29 36C29 36.2598 28.8897 36.5195 28.71 36.71C28.5195 36.8897 28.2598 37 28 37Z" fill="#1D1B4C"/>
<path d="M28 41C27.7402 41 27.4795 40.8897 27.29 40.71C27.0996 40.5195 27 40.2598 27 40C27 39.7295 27.1094 39.4795 27.29 39.29C27.6602 38.9199 28.3301 38.9199 28.71 39.29C28.8897 39.4795 29 39.7295 29 40C29 40.2598 28.8897 40.5195 28.71 40.71C28.5195 40.8897 28.2598 41 28 41Z" fill="#1D1B4C"/>
<path d="M39 52H25C24.4473 52 24 51.5527 24 51C24 50.4473 24.4473 50 25 50H39C39.5527 50 40 50.4473 40 51C40 51.5527 39.5527 52 39 52Z" fill="#1D1B4C"/>
<path d="M32 52C31.4473 52 31 51.5527 31 51V44C31 43.4473 31.4473 43 32 43C32.5527 43 33 43.4473 33 44V51C33 51.5527 32.5527 52 32 52Z" fill="#1D1B4C"/>
</svg>
