<svg width="64" height="64" viewBox="0 0 64 64" fill="none" xmlns="http://www.w3.org/2000/svg">
<path d="M34 14C37.3137 14 40 11.3137 40 8C40 4.68629 37.3137 2 34 2C30.6863 2 28 4.68629 28 8C28 11.3137 30.6863 14 34 14Z" fill="#F74848"/>
<path d="M39 34H21V20C21 17.7909 22.7909 16 25 16H35C37.2091 16 39 17.7909 39 20V34Z" fill="#F74848"/>
<path d="M32 14C28.1406 14 25 10.8599 25 7C25 3.14014 28.1406 0 32 0C35.8594 0 39 3.14014 39 7C39 10.8599 35.8594 14 32 14ZM32 2C29.2432 2 27 4.24316 27 7C27 9.75684 29.2432 12 32 12C34.7568 12 37 9.75684 37 7C37 4.24316 34.7568 2 32 2Z" fill="#1D1B4C"/>
<path d="M41 32H23C22.4473 32 22 31.5522 22 31V17C22 14.2432 24.2432 12 27 12H37C39.7568 12 42 14.2432 42 17V31C42 31.5522 41.5527 32 41 32ZM24 30H40V17C40 15.3457 38.6543 14 37 14H27C25.3457 14 24 15.3457 24 17V30Z" fill="#1D1B4C"/>
<path d="M28 32C27.4473 32 27 31.5522 27 31V21C27 20.4477 27.4473 20 28 20C28.5527 20 29 20.4477 29 21V31C29 31.5522 28.5527 32 28 32Z" fill="#1D1B4C"/>
<path d="M36 32C35.4473 32 35 31.5522 35 31V21C35 20.4477 35.4473 20 36 20C36.5527 20 37 20.4477 37 21V31C37 31.5522 36.5527 32 36 32Z" fill="#1D1B4C"/>
<path d="M10 46C6.14062 46 3 42.8599 3 39C3 35.1401 6.14063 32 10 32C13.8594 32 17 35.1401 17 39C17 42.8599 13.8594 46 10 46ZM10 34C7.24316 34 5 36.2432 5 39C5 41.7568 7.24316 44 10 44C12.7568 44 15 41.7568 15 39C15 36.2432 12.7568 34 10 34Z" fill="#1D1B4C"/>
<path d="M19 64H1C0.44727 64 0 63.5522 0 63V49C0 46.2432 2.24316 44 5 44H15C17.7568 44 20 46.2432 20 49V63C20 63.5522 19.5527 64 19 64ZM2 62H18V49C18 47.3457 16.6543 46 15 46H5C3.3457 46 2 47.3457 2 49V62Z" fill="#1D1B4C"/>
<path d="M6 64C5.44727 64 5 63.5522 5 63V53C5 52.4477 5.44727 52 6 52C6.55273 52 7 52.4477 7 53V63C7 63.5522 6.55273 64 6 64Z" fill="#1D1B4C"/>
<path d="M14 64C13.4473 64 13 63.5522 13 63V53C13 52.4477 13.4473 52 14 52C14.5527 52 15 52.4477 15 53V63C15 63.5522 14.5527 64 14 64Z" fill="#1D1B4C"/>
<path d="M54 46C50.1406 46 47 42.8599 47 39C47 35.1401 50.1406 32 54 32C57.8594 32 61 35.1401 61 39C61 42.8599 57.8594 46 54 46ZM54 34C51.2432 34 49 36.2432 49 39C49 41.7568 51.2432 44 54 44C56.7568 44 59 41.7568 59 39C59 36.2432 56.7568 34 54 34Z" fill="#1D1B4C"/>
<path d="M63 64H45C44.4473 64 44 63.5522 44 63V49C44 46.2432 46.2432 44 49 44H59C61.7568 44 64 46.2432 64 49V63C64 63.5522 63.5527 64 63 64ZM46 62H62V49C62 47.3457 60.6543 46 59 46H49C47.3457 46 46 47.3457 46 49V62Z" fill="#1D1B4C"/>
<path d="M50 64C49.4473 64 49 63.5522 49 63V53C49 52.4477 49.4473 52 50 52C50.5527 52 51 52.4477 51 53V63C51 63.5522 50.5527 64 50 64Z" fill="#1D1B4C"/>
<path d="M58 64C57.4473 64 57 63.5522 57 63V53C57 52.4477 57.4473 52 58 52C58.5527 52 59 52.4477 59 53V63C59 63.5522 58.5527 64 58 64Z" fill="#1D1B4C"/>
<path d="M32 46C31.4473 46 31 45.5522 31 45V35C31 34.4477 31.4473 34 32 34C32.5527 34 33 34.4477 33 35V45C33 45.5522 32.5527 46 32 46Z" fill="#1D1B4C"/>
<path d="M23 54C22.7246 54 22.4502 53.8867 22.253 53.6645C21.8858 53.2515 21.9229 52.6196 22.336 52.2524L31.336 44.2524C31.7481 43.8862 32.3799 43.9224 32.7471 44.3354C33.1143 44.7485 33.0772 45.3804 32.6641 45.7476L23.6641 53.7476C23.4737 53.9165 23.2364 54 23 54Z" fill="#1D1B4C"/>
<path d="M41 54C40.7637 54 40.5264 53.917 40.336 53.7476L31.336 45.7476C30.9229 45.3804 30.8858 44.7486 31.253 44.3355C31.6192 43.9224 32.251 43.8853 32.6641 44.2525L41.6641 52.2525C42.0772 52.6197 42.1143 53.2515 41.7471 53.6646C41.5498 53.8867 41.2754 54 41 54Z" fill="#1D1B4C"/>
<path d="M32 17C31.7402 17 31.4795 16.8897 31.29 16.71C31.1094 16.52 31 16.2598 31 16C31 15.7398 31.1094 15.48 31.29 15.29C31.6699 14.9199 32.3398 14.9199 32.71 15.29C32.8897 15.48 33 15.7398 33 16C33 16.2598 32.8897 16.52 32.71 16.71C32.5195 16.8897 32.2598 17 32 17Z" fill="#1D1B4C"/>
<path d="M54 49C53.7402 49 53.4795 48.8999 53.29 48.71C53.1094 48.52 53 48.2598 53 48C53 47.7398 53.1094 47.48 53.29 47.29C53.6699 46.9199 54.3301 46.9199 54.71 47.29C54.8897 47.48 55 47.7398 55 48C55 48.2598 54.8994 48.52 54.71 48.71C54.5195 48.8999 54.2598 49 54 49Z" fill="#1D1B4C"/>
<path d="M10 49C9.74023 49 9.47949 48.8897 9.29004 48.71C9.10938 48.52 9 48.2598 9 48C9 47.7398 9.10938 47.48 9.29004 47.29C9.66016 46.9199 10.3301 46.9199 10.71 47.29C10.8896 47.48 11 47.7398 11 48C11 48.2598 10.8896 48.52 10.71 48.71C10.5195 48.8897 10.2598 49 10 49Z" fill="#1D1B4C"/>
<path d="M10 53C9.74023 53 9.47949 52.8897 9.29004 52.71C9.10938 52.52 9 52.2598 9 52C9 51.7398 9.10938 51.48 9.29004 51.29C9.66016 50.9199 10.3301 50.9199 10.71 51.29C10.8896 51.48 11 51.7398 11 52C11 52.2598 10.8896 52.52 10.71 52.71C10.5195 52.8897 10.2598 53 10 53Z" fill="#1D1B4C"/>
<path d="M54 53C53.7402 53 53.4795 52.8897 53.29 52.71C53.1094 52.52 53 52.2598 53 52C53 51.7398 53.1094 51.48 53.29 51.29C53.6699 50.9199 54.3301 50.9199 54.71 51.29C54.8897 51.48 55 51.7398 55 52C55 52.2598 54.8897 52.52 54.71 52.71C54.5195 52.8897 54.2598 53 54 53Z" fill="#1D1B4C"/>
<path d="M32 21C31.7402 21 31.4795 20.8897 31.29 20.71C31.1094 20.52 31 20.27 31 20C31 19.7398 31.1094 19.48 31.29 19.29C31.6602 18.9199 32.3398 18.9199 32.71 19.29C32.8897 19.48 33 19.73 33 20C33 20.27 32.8896 20.52 32.7002 20.71C32.5195 20.8897 32.2695 21 32 21Z" fill="#1D1B4C"/>
</svg>
