<svg xmlns="http://www.w3.org/2000/svg" fill="none" viewBox="0 0 362 366"><defs/><path fill="#fff" stroke="#3FCCDF" stroke-width="2" d="M169.5 83.794a23 23 0 0123 0l68.665 39.644a22.999 22.999 0 0111.5 19.918v79.288c0 8.217-4.384 15.81-11.5 19.918L192.5 282.206a23.003 23.003 0 01-23 0l-68.665-39.644a22.999 22.999 0 01-11.5-19.918v-79.288c0-8.217 4.384-15.81 11.5-19.918L169.5 83.794z"/><path fill="#3FCCDF" d="M181.707.293a1 1 0 00-1.414 0l-6.364 6.364a1 1 0 101.414 1.414L181 2.414l5.657 5.657a1 1 0 101.414-1.414L181.707.293zM182 81V1h-2v80h2zm-1.707 284.707a.999.999 0 001.414 0l6.364-6.364a.999.999 0 10-1.414-1.414L181 363.586l-5.657-5.657a.999.999 0 10-1.414 1.414l6.364 6.364zM180 285v80h2v-80h-2zM4.034 282.741a1 1 0 00.707 1.225l8.694 2.329a1 1 0 10.517-1.932l-7.727-2.07 2.07-7.728a1 1 0 10-1.932-.517l-2.329 8.693zm87.069-50.607l-86.603 50 1 1.732 86.603-50-1-1.732zM4.741 82.034a1 1 0 00-.707 1.225l2.33 8.693a1 1 0 001.931-.517l-2.07-7.728 7.727-2.07a1 1 0 00-.518-1.932l-8.693 2.33zm87.362 50.1l-86.603-50-1 1.732 86.603 50 1-1.732zm265.875-48.447a1 1 0 00-.707-1.225l-8.693-2.329a1 1 0 00-.518 1.932l7.727 2.07-2.07 7.728a1 1 0 001.932.517l2.329-8.693zm-87.068 50.607l86.602-50-1-1.732-86.602 50 1 1.732zm85.951 149.672a1 1 0 00.707-1.225l-2.329-8.693a1 1 0 10-1.932.517l2.071 7.728-7.728 2.07a1 1 0 00.518 1.932l8.693-2.329zm-87.361-50.1l86.603 50 1-1.732-86.603-50-1 1.732z"/></svg>