<svg xmlns="http://www.w3.org/2000/svg" fill="none" viewBox="0 0 214 286"><defs/><path fill="#fff" stroke="#3FCCDF" stroke-width="2" d="M95.5 43.794a23 23 0 0123 0l68.665 39.644a23 23 0 0111.5 19.918v79.288c0 8.217-4.384 15.81-11.5 19.918L118.5 242.206a23.003 23.003 0 01-23 0l-68.665-39.644a22.999 22.999 0 01-11.5-19.918v-79.288a23 23 0 0111.5-19.918L95.5 43.794z"/><path fill="#3FCCDF" d="M107.707.293a1 1 0 00-1.414 0l-6.364 6.364a1 1 0 001.414 1.414L107 2.414l5.657 5.657a1 1 0 101.414-1.414L107.707.293zM108 41V1h-2v40h2zm-1.707 244.707a.999.999 0 001.414 0l6.364-6.364a.999.999 0 10-1.414-1.414L107 283.586l-5.657-5.657a.999.999 0 10-1.414 1.414l6.364 6.364zM106 245v40h2v-40h-2z"/></svg>