<svg xmlns="http://www.w3.org/2000/svg"><defs/><symbol id="fb" viewBox="0 0 24 24"><path d="M12.001 2.002c-5.522 0-9.999 4.477-9.999 9.999 0 4.99 3.656 9.126 8.437 9.879v-6.988h-2.54v-2.891h2.54V9.798c0-2.508 1.493-3.891 3.776-3.891 1.094 0 2.24.195 2.24.195v2.459h-1.264c-1.24 0-1.628.772-1.628 1.563v1.875h2.771l-.443 2.891h-2.328v6.988C18.344 21.129 22 16.992 22 12.001c0-5.522-4.477-9.999-9.999-9.999z"/></symbol><symbol id="tw" viewBox="0 0 24 24"><path d="M22.46 6.012a8.58 8.58 0 01-2.466.676 4.305 4.305 0 001.887-2.374 8.591 8.591 0 01-2.725 1.041 4.292 4.292 0 00-7.313 3.914 12.184 12.184 0 01-8.846-4.483 4.271 4.271 0 00-.581 2.157 4.29 4.29 0 001.91 3.572 4.276 4.276 0 01-1.945-.537v.054c0 2.08 1.48 3.814 3.443 4.209a4.296 4.296 0 01-1.939.073 4.296 4.296 0 004.01 2.98 8.61 8.61 0 01-5.33 1.838c-.347 0-.688-.02-1.024-.06A12.147 12.147 0 008.12 21c7.893 0 12.21-6.54 12.21-12.21 0-.187-.004-.372-.012-.556a8.719 8.719 0 002.141-2.222z"/></symbol><symbol id="in" viewBox="0 0 24 24"><path d="M21 21h-4v-6.75c0-1.059-1.188-1.944-2.246-1.944-1.06 0-1.754.885-1.754 1.944V21H9V9h4v2c.662-1.071 2.356-1.763 3.525-1.763C18.997 9.237 21 11.28 21 13.75V21zM7 21H3V9h4v12zM5 3a2 2 0 110 4 2 2 0 010-4z"/></symbol><symbol id="card" viewBox="0 0 64 64"><path fill="#F74848" d="M12 22a2 2 0 100-4 2 2 0 000 4zm11 0a2 2 0 100-4 2 2 0 000 4zm11 0a2 2 0 100-4 2 2 0 000 4zm11 0a2 2 0 100-4 2 2 0 000 4zm11 0a2 2 0 100-4 2 2 0 000 4zm-34 5H10v12h12V27z"/><path fill="#1D1B4C" d="M59 56H5c-2.757 0-5-2.243-5-5V17c0-2.757 2.243-5 5-5h54c2.757 0 5 2.243 5 5v34c0 2.757-2.243 5-5 5zM5 14c-1.654 0-3 1.346-3 3v34c0 1.654 1.346 3 3 3h54c1.654 0 3-1.346 3-3V17c0-1.654-1.346-3-3-3H5z"/><path fill="#1D1B4C" d="M10 21c-1.654 0-3-1.346-3-3s1.346-3 3-3 3 1.346 3 3-1.346 3-3 3zm0-4a1.001 1.001 0 000 2 1 1 0 000-2zm11 4c-1.654 0-3-1.346-3-3s1.346-3 3-3 3 1.346 3 3-1.346 3-3 3zm0-4a1 1 0 000 2 1 1 0 000-2zm11 4c-1.654 0-3-1.346-3-3s1.346-3 3-3 3 1.346 3 3-1.346 3-3 3zm0-4a1 1 0 000 2 1 1 0 000-2zm11 4c-1.654 0-3-1.346-3-3s1.346-3 3-3 3 1.346 3 3-1.346 3-3 3zm0-4a1 1 0 000 2 1 1 0 000-2zm11 4c-1.654 0-3-1.346-3-3s1.346-3 3-3 3 1.346 3 3-1.346 3-3 3zm0-4a1 1 0 000 2 1 1 0 000-2z"/><path fill="#1D1B4C" d="M10 17a1 1 0 01-1-1v-6a1 1 0 112 0v6a1 1 0 01-1 1zm11 0a1 1 0 01-1-1v-6a1 1 0 112 0v6a1 1 0 01-1 1zm11 0a1 1 0 01-1-1v-6a1 1 0 112 0v6a1 1 0 01-1 1zm11 0a1 1 0 01-1-1v-6a1 1 0 112 0v6a1 1 0 01-1 1zm11 0a1 1 0 01-1-1v-6a1 1 0 112 0v6a1 1 0 01-1 1zM20 38H8a1 1 0 01-1-1V25a1 1 0 011-1h12a1 1 0 011 1v12a1 1 0 01-1 1zM9 36h10V26H9v10zm44-10H25a1 1 0 110-2h28a1 1 0 110 2zm0 6H25a1 1 0 110-2h28a1 1 0 110 2zm0 6H25a1 1 0 110-2h28a1 1 0 110 2zm0 6H8a1 1 0 110-2h45a1 1 0 110 2zM8 50c-.27 0-.52-.11-.71-.29-.18-.19-.29-.45-.29-.71 0-.26.11-.52.29-.71.37-.37 1.04-.37 1.42 0 .18.19.29.45.29.71 0 .26-.1.52-.29.71-.19.18-.45.29-.71.29zm4 0c-.26 0-.52-.11-.71-.29-.19-.19-.29-.45-.29-.71 0-.26.1-.52.29-.71.38-.37 1.05-.37 1.42 0 .18.19.29.45.29.71 0 .26-.11.52-.29.71-.19.18-.45.29-.71.29zm4 0c-.26 0-.52-.11-.71-.29A1.05 1.05 0 0115 49c0-.26.11-.52.29-.71.38-.37 1.04-.37 1.42 0 .18.19.29.45.29.71 0 .26-.11.52-.29.71-.19.18-.45.29-.71.29zm4 0c-.26 0-.52-.11-.71-.29A1.05 1.05 0 0119 49c0-.26.11-.52.29-.71.37-.37 1.04-.37 1.42 0 .18.19.29.45.29.71 0 .26-.11.52-.29.71-.19.18-.45.29-.71.29zm4 0c-.27 0-.52-.11-.71-.29A1.03 1.03 0 0123 49c0-.27.11-.52.29-.71.37-.37 1.04-.37 1.42 0 .18.19.29.45.29.71 0 .26-.11.52-.29.71-.19.18-.45.29-.71.29zm4 0c-.26 0-.52-.11-.71-.29A1.05 1.05 0 0127 49c0-.27.11-.52.29-.71.37-.37 1.04-.37 1.42 0 .18.19.29.45.29.71 0 .26-.11.52-.29.71-.19.18-.45.29-.71.29zm4 0c-.26 0-.52-.11-.71-.29A1.05 1.05 0 0131 49c0-.27.11-.52.29-.71.37-.37 1.04-.37 1.42 0 .18.19.29.45.29.71 0 .26-.11.52-.29.71-.19.18-.45.29-.71.29zm4 0c-.26 0-.52-.11-.71-.29A1.03 1.03 0 0135 49c0-.26.11-.52.29-.71.38-.37 1.04-.37 1.42 0 .18.19.29.45.29.71 0 .26-.11.52-.29.71-.19.18-.45.29-.71.29zm4 0c-.26 0-.52-.11-.71-.29A1.05 1.05 0 0139 49c0-.26.11-.52.29-.71.37-.37 1.05-.37 1.42 0 .18.19.29.45.29.71 0 .26-.11.52-.3.71a.99.99 0 01-.7.29zm4 0c-.27 0-.52-.11-.71-.29A1.05 1.05 0 0143 49c0-.26.11-.52.29-.71.37-.37 1.05-.37 1.42 0 .18.19.29.45.29.71 0 .26-.11.52-.29.71-.19.18-.45.29-.71.29zm4 0c-.26 0-.52-.11-.71-.29A1.03 1.03 0 0147 49c0-.26.11-.52.29-.71.37-.37 1.05-.37 1.42 0 .18.19.29.45.29.71 0 .27-.11.52-.29.71-.19.18-.44.29-.71.29zm4 0c-.26 0-.52-.11-.71-.29A1.03 1.03 0 0151 49c0-.26.11-.52.29-.71.38-.37 1.05-.37 1.42 0 .19.19.29.45.29.71 0 .26-.1.52-.29.71-.19.18-.45.29-.71.29zm4 0c-.27 0-.52-.11-.71-.29A1.05 1.05 0 0155 49c0-.26.11-.52.29-.71.37-.37 1.04-.37 1.42 0 .18.19.29.45.29.71 0 .26-.11.52-.29.71-.19.18-.45.29-.71.29zm0-6c-.27 0-.52-.11-.71-.29A1.05 1.05 0 0155 43c0-.26.11-.52.29-.71.37-.37 1.04-.37 1.42 0 .18.19.29.45.29.71 0 .26-.11.52-.29.71-.19.18-.45.29-.71.29zm0-6c-.27 0-.52-.11-.71-.29A1.05 1.05 0 0155 37c0-.26.11-.52.29-.71.37-.37 1.04-.37 1.42 0 .18.19.29.45.29.71 0 .26-.11.52-.29.71-.19.18-.45.29-.71.29zm0-6c-.27 0-.52-.11-.71-.29A1.05 1.05 0 0155 31c0-.26.11-.52.29-.71.37-.37 1.04-.37 1.42 0 .18.19.29.45.29.71 0 .26-.11.52-.29.71-.19.18-.45.29-.71.29zm0-6c-.27 0-.52-.11-.71-.29A1.05 1.05 0 0155 25c0-.26.11-.52.29-.71.37-.37 1.04-.37 1.42 0 .18.19.29.45.29.71 0 .26-.11.52-.29.71-.19.18-.45.29-.71.29z"/></symbol><symbol id="school" viewBox="0 0 64 64"><path fill="#F74848" d="M41 60H27V49a7 7 0 1114 0v11zm21-36L56 6H10L4 24h22.5l6.5-6 6.5 6H62z"/><path fill="#1D1B4C" d="M63 63H1a1 1 0 110-2h62a1 1 0 110 2z"/><path fill="#1D1B4C" d="M56 63H8a1 1 0 01-1-1V20a1 1 0 112 0v41h46V20a1 1 0 112 0v42a1 1 0 01-1 1z"/><path fill="#1D1B4C" d="M61 21H38.5c-.251 0-.493-.095-.679-.266L32 15.361l-5.821 5.373A1.003 1.003 0 0125.5 21H3a1 1 0 110-2h22.11l6.211-5.734a1.001 1.001 0 011.358 0L38.89 19H61a1 1 0 110 2z"/><path fill="#1D1B4C" d="M61 21a1 1 0 01-.948-.684L54.279 3H9.721L3.948 20.316a1 1 0 11-1.896-.633l6-18A.999.999 0 019 1h46c.43 0 .813.275.948.684l6 18A1 1 0 0161 21zM39 63H25a1 1 0 01-1-1V51c0-4.411 3.589-8 8-8s8 3.589 8 8v11a1 1 0 01-1 1zm-13-2h12V51c0-3.309-2.691-6-6-6s-6 2.691-6 6v10zm-6-20h-6a1 1 0 01-1-1v-9a1 1 0 011-1h6a1 1 0 011 1v9a1 1 0 01-1 1zm-5-2h4v-7h-4v7zm5 17h-6a1 1 0 01-1-1v-9a1 1 0 011-1h6a1 1 0 011 1v9a1 1 0 01-1 1zm-5-2h4v-7h-4v7zm35-13h-6a1 1 0 01-1-1v-9a1 1 0 011-1h6a1 1 0 011 1v9a1 1 0 01-1 1zm-5-2h4v-7h-4v7zm5 17h-6a1 1 0 01-1-1v-9a1 1 0 011-1h6a1 1 0 011 1v9a1 1 0 01-1 1zm-5-2h4v-7h-4v7z"/><path fill="#1D1B4C" d="M32 32c-3.309 0-6-2.691-6-6s2.691-6 6-6 6 2.691 6 6-2.691 6-6 6zm0-10c-2.206 0-4 1.794-4 4s1.794 4 4 4 4-1.794 4-4-1.794-4-4-4zm0 15c-.26 0-.52-.11-.71-.29A1.05 1.05 0 0131 36c0-.27.11-.52.29-.71.38-.37 1.04-.37 1.42 0 .18.19.29.45.29.71 0 .26-.11.52-.29.71-.19.18-.45.29-.71.29zm0 4c-.26 0-.52-.11-.71-.29A1.05 1.05 0 0131 40c0-.27.11-.52.29-.71.37-.36 1.05-.37 1.42 0 .18.19.29.44.29.71 0 .26-.11.52-.29.71-.19.18-.45.29-.71.29zm4-4c-.26 0-.52-.11-.71-.29A1.05 1.05 0 0135 36c0-.26.11-.52.29-.71.38-.37 1.05-.37 1.42 0 .18.19.29.45.29.71 0 .26-.11.52-.3.71a.99.99 0 01-.7.29zm0 4c-.26 0-.52-.11-.71-.29a1.01 1.01 0 010-1.42c.37-.37 1.05-.37 1.42 0 .18.19.29.44.29.71 0 .26-.11.52-.29.71-.19.18-.45.29-.71.29zm-8-4c-.26 0-.52-.11-.71-.29A1.05 1.05 0 0127 36c0-.26.11-.52.29-.71.38-.37 1.04-.37 1.42 0 .18.19.29.45.29.71 0 .26-.11.52-.29.71-.19.18-.45.29-.71.29zm0 4c-.26 0-.52-.11-.71-.29-.19-.19-.29-.45-.29-.71 0-.27.11-.52.29-.71.37-.37 1.04-.37 1.42 0 .18.19.29.44.29.71 0 .26-.11.52-.29.71-.19.18-.45.29-.71.29zm11 11H25a1 1 0 110-2h14a1 1 0 110 2z"/><path fill="#1D1B4C" d="M32 52a1 1 0 01-1-1v-7a1 1 0 112 0v7a1 1 0 01-1 1z"/></symbol><symbol id="users" viewBox="0 0 64 64"><path fill="#F74848" d="M34 14a6 6 0 100-12 6 6 0 000 12zm5 20H21V20a4 4 0 014-4h10a4 4 0 014 4v14z"/><path fill="#1D1B4C" d="M32 14c-3.86 0-7-3.14-7-7s3.14-7 7-7 7 3.14 7 7-3.14 7-7 7zm0-12c-2.757 0-5 2.243-5 5s2.243 5 5 5 5-2.243 5-5-2.243-5-5-5z"/><path fill="#1D1B4C" d="M41 32H23a1 1 0 01-1-1V17c0-2.757 2.243-5 5-5h10c2.757 0 5 2.243 5 5v14a1 1 0 01-1 1zm-17-2h16V17c0-1.654-1.346-3-3-3H27c-1.654 0-3 1.346-3 3v13z"/><path fill="#1D1B4C" d="M28 32a1 1 0 01-1-1V21a1 1 0 112 0v10a1 1 0 01-1 1zm8 0a1 1 0 01-1-1V21a1 1 0 112 0v10a1 1 0 01-1 1zM10 46c-3.86 0-7-3.14-7-7s3.14-7 7-7 7 3.14 7 7-3.14 7-7 7zm0-12c-2.757 0-5 2.243-5 5s2.243 5 5 5 5-2.243 5-5-2.243-5-5-5z"/><path fill="#1D1B4C" d="M19 64H1a1 1 0 01-1-1V49c0-2.757 2.243-5 5-5h10c2.757 0 5 2.243 5 5v14a1 1 0 01-1 1zM2 62h16V49c0-1.654-1.346-3-3-3H5c-1.654 0-3 1.346-3 3v13z"/><path fill="#1D1B4C" d="M6 64a1 1 0 01-1-1V53a1 1 0 112 0v10a1 1 0 01-1 1zm8 0a1 1 0 01-1-1V53a1 1 0 112 0v10a1 1 0 01-1 1zm40-18c-3.86 0-7-3.14-7-7s3.14-7 7-7 7 3.14 7 7-3.14 7-7 7zm0-12c-2.757 0-5 2.243-5 5s2.243 5 5 5 5-2.243 5-5-2.243-5-5-5z"/><path fill="#1D1B4C" d="M63 64H45a1 1 0 01-1-1V49c0-2.757 2.243-5 5-5h10c2.757 0 5 2.243 5 5v14a1 1 0 01-1 1zm-17-2h16V49c0-1.654-1.346-3-3-3H49c-1.654 0-3 1.346-3 3v13z"/><path fill="#1D1B4C" d="M50 64a1 1 0 01-1-1V53a1 1 0 112 0v10a1 1 0 01-1 1zm8 0a1 1 0 01-1-1V53a1 1 0 112 0v10a1 1 0 01-1 1zM32 46a1 1 0 01-1-1V35a1 1 0 112 0v10a1 1 0 01-1 1z"/><path fill="#1D1B4C" d="M23 54a1 1 0 01-.664-1.748l9-8a1 1 0 111.328 1.496l-9 8A.998.998 0 0123 54z"/><path fill="#1D1B4C" d="M41 54a.995.995 0 01-.664-.252l-9-8a1 1 0 111.328-1.495l9 8A1 1 0 0141 54zm-9-37c-.26 0-.52-.11-.71-.29A1.05 1.05 0 0131 16c0-.26.11-.52.29-.71.38-.37 1.05-.37 1.42 0 .18.19.29.45.29.71 0 .26-.11.52-.29.71-.19.18-.45.29-.71.29zm22 32c-.26 0-.52-.1-.71-.29A1.05 1.05 0 0153 48c0-.26.11-.52.29-.71.38-.37 1.04-.37 1.42 0 .18.19.29.45.29.71 0 .26-.1.52-.29.71-.19.19-.45.29-.71.29zm-44 0c-.26 0-.52-.11-.71-.29-.18-.19-.29-.45-.29-.71 0-.26.11-.52.29-.71.37-.37 1.04-.37 1.42 0 .18.19.29.45.29.71 0 .26-.11.52-.29.71-.19.18-.45.29-.71.29zm0 4c-.26 0-.52-.11-.71-.29-.18-.19-.29-.45-.29-.71 0-.26.11-.52.29-.71.37-.37 1.04-.37 1.42 0 .18.19.29.45.29.71 0 .26-.11.52-.29.71-.19.18-.45.29-.71.29zm44 0c-.26 0-.52-.11-.71-.29A1.05 1.05 0 0153 52c0-.26.11-.52.29-.71.38-.37 1.04-.37 1.42 0 .18.19.29.45.29.71 0 .26-.11.52-.29.71-.19.18-.45.29-.71.29zM32 21c-.26 0-.52-.11-.71-.29A1.03 1.03 0 0131 20c0-.26.11-.52.29-.71.37-.37 1.05-.37 1.42 0a1.002 1.002 0 01-.01 1.42.99.99 0 01-.7.29z"/></symbol><symbol id="network" viewBox="0 0 64 64"><path fill="#F74848" d="M30 38a4 4 0 100-8 4 4 0 000 8zm3 23a4 4 0 100-8 4 4 0 000 8zm24-13a4 4 0 100-8 4 4 0 000 8zM9 48a4 4 0 100-8 4 4 0 000 8zm21-37a4 4 0 100-8 4 4 0 000 8zm24 13a4 4 0 100-8 4 4 0 000 8zM6 24a4 4 0 100-8 4 4 0 000 8z"/><path fill="#1D1B4C" d="M8 43a1 1 0 01-1-1V22a1 1 0 112 0v20a1 1 0 01-1 1zm3.451-26.01a1 1 0 01-.505-1.863l16.74-9.77a1 1 0 111.008 1.726l-16.74 9.77a.993.993 0 01-.503.137zM56 43a1 1 0 01-1-1V22a1 1 0 112 0v20a1 1 0 01-1 1zM28.189 58.78a.992.992 0 01-.503-.136l-16.74-9.771a1 1 0 111.008-1.726l16.74 9.77a1 1 0 01-.505 1.863zm7.622 0a1 1 0 01-.505-1.863l16.74-9.77a.999.999 0 111.008 1.726l-16.74 9.77a.992.992 0 01-.503.137zm16.738-41.79a.99.99 0 01-.503-.136l-16.74-9.771a1 1 0 111.008-1.727l16.74 9.77a1 1 0 01-.505 1.864z"/><path fill="#1D1B4C" d="M32 10c-2.757 0-5-2.243-5-5s2.243-5 5-5 5 2.243 5 5-2.243 5-5 5zm0-8c-1.654 0-3 1.346-3 3s1.346 3 3 3 3-1.346 3-3-1.346-3-3-3zm0 62c-2.757 0-5-2.243-5-5s2.243-5 5-5 5 2.243 5 5-2.243 5-5 5zm0-8c-1.654 0-3 1.346-3 3s1.346 3 3 3 3-1.346 3-3-1.346-3-3-3zm24-5c-2.757 0-5-2.243-5-5s2.243-5 5-5 5 2.243 5 5-2.243 5-5 5zm0-8c-1.654 0-3 1.346-3 3s1.346 3 3 3 3-1.346 3-3-1.346-3-3-3zm0-20c-2.757 0-5-2.243-5-5s2.243-5 5-5 5 2.243 5 5-2.243 5-5 5zm0-8c-1.654 0-3 1.346-3 3s1.346 3 3 3 3-1.346 3-3-1.346-3-3-3zM8 23c-2.757 0-5-2.243-5-5s2.243-5 5-5 5 2.243 5 5-2.243 5-5 5zm0-8c-1.654 0-3 1.346-3 3s1.346 3 3 3 3-1.346 3-3-1.346-3-3-3zm0 36c-2.757 0-5-2.243-5-5s2.243-5 5-5 5 2.243 5 5-2.243 5-5 5zm0-8c-1.654 0-3 1.346-3 3s1.346 3 3 3 3-1.346 3-3-1.346-3-3-3z"/><path fill="#1D1B4C" d="M32 56a1 1 0 01-1-1V36a1 1 0 112 0v19a1 1 0 01-1 1zm0-27a1 1 0 01-1-1V9a1 1 0 112 0v19a1 1 0 01-1 1zm-3.451 1.99a.991.991 0 01-.503-.136l-17.1-9.981a1 1 0 111.008-1.727l17.1 9.98a1 1 0 01-.505 1.864zm6.902 0a1 1 0 01-.505-1.863l17.1-9.98a.999.999 0 111.008 1.726l-17.1 9.98a.992.992 0 01-.503.137zm17.098 14a.99.99 0 01-.503-.137l-17.1-9.98a1 1 0 111.008-1.726l17.1 9.98a1 1 0 01-.505 1.863zm-41.098 0a1 1 0 01-.505-1.863l17.1-9.98a.999.999 0 111.008 1.726l-17.1 9.98a.992.992 0 01-.503.137z"/><path fill="#1D1B4C" d="M32 37c-2.757 0-5-2.243-5-5s2.243-5 5-5 5 2.243 5 5-2.243 5-5 5zm0-8c-1.654 0-3 1.346-3 3s1.346 3 3 3 3-1.346 3-3-1.346-3-3-3zM10.019 43.55a.998.998 0 01-.862-1.505l19.96-34.1a.998.998 0 111.726 1.01l-19.96 34.1a.998.998 0 01-.864.495zm43.961 0a.998.998 0 01-.863-.495l-19.96-34.1a1 1 0 111.726-1.01l19.96 34.1a1 1 0 01-.862 1.505zM52 47H12a1 1 0 110-2h40a1 1 0 110 2z"/></symbol><symbol id="diploma" viewBox="0 0 64 64"><path fill="#F74848" d="M42 8H12a1 1 0 010-2h30a1 1 0 010 2zm0 6H12a1 1 0 110-2h30a1 1 0 010 2zm10 6H12a1 1 0 110-2h40a1 1 0 010 2zm0 6H12a1 1 0 110-2h40a1 1 0 010 2zm-33 6h-7a1 1 0 110-2h7a1 1 0 010 2zm8 0c-.26 0-.52-.11-.71-.29-.18-.19-.29-.45-.29-.71 0-.27.11-.52.29-.71.37-.37 1.04-.37 1.42 0 .18.19.29.45.29.71 0 .26-.11.52-.29.71-.19.18-.45.29-.71.29zm4 0c-.26 0-.52-.11-.71-.29-.18-.19-.29-.45-.29-.71 0-.27.11-.52.29-.71.37-.37 1.05-.37 1.42 0 .18.19.29.44.29.71 0 .26-.11.52-.29.71-.19.18-.45.29-.71.29zm-8 0c-.26 0-.52-.11-.71-.29-.18-.19-.29-.45-.29-.71 0-.26.11-.52.29-.71.37-.37 1.05-.37 1.42 0 .18.19.29.45.29.71 0 .26-.11.52-.29.71-.19.18-.45.29-.71.29zm18 15a8 8 0 100-16 8 8 0 000 16z"/><path fill="#1D1B4C" d="M63 41H51.42a1 1 0 010-2H62V11.414L52.586 2H2v37h34.58a1 1 0 010 2H1a1 1 0 01-1-1V1a1 1 0 011-1h52a1 1 0 01.707.293l10 10A1 1 0 0164 11v29a1 1 0 01-1 1z"/><path fill="#1D1B4C" d="M63 12H53a1 1 0 01-1-1V1a1 1 0 012 0v9h9a1 1 0 010 2zM44 46c-4.962 0-9-4.038-9-9s4.038-9 9-9 9 4.038 9 9-4.038 9-9 9zm0-16c-3.86 0-7 3.14-7 7s3.14 7 7 7 7-3.14 7-7-3.14-7-7-7z"/><path fill="#1D1B4C" d="M44 42c-2.757 0-5-2.243-5-5s2.243-5 5-5 5 2.243 5 5-2.243 5-5 5zm0-8c-1.654 0-3 1.346-3 3s1.346 3 3 3 3-1.346 3-3-1.346-3-3-3z"/><path fill="#1D1B4C" d="M50 63a1 1 0 01-.9-.565L44 51.862l-5.1 10.573a1 1 0 01-1.862-.16l-1.65-5.774-5.892 3.367a.999.999 0 01-1.384-1.329l8.8-16.95a1 1 0 111.776.922l-7.236 13.936 4.052-2.315a.999.999 0 011.458.593L38.24 59.2l4.86-10.075c.333-.69 1.467-.69 1.8 0L49.76 59.2l1.279-4.475a1 1 0 011.457-.593l3.963 2.265-7.349-13.623a1 1 0 111.76-.949l9.01 16.7a.999.999 0 01-1.376 1.343l-5.893-3.367-1.65 5.774A1 1 0 0150 63zM42 9H12a1 1 0 010-2h30a1 1 0 010 2zm0 6H12a1 1 0 110-2h30a1 1 0 010 2zm10 6H12a1 1 0 110-2h40a1 1 0 010 2zm0 6H12a1 1 0 110-2h40a1 1 0 010 2zm-33 6h-7a1 1 0 110-2h7a1 1 0 010 2zm8 0c-.26 0-.52-.11-.71-.29-.18-.19-.29-.44-.29-.71 0-.26.11-.52.29-.71.37-.37 1.04-.37 1.42 0 .18.19.29.45.29.71 0 .26-.11.52-.29.71-.19.18-.45.29-.71.29zm4 0c-.26 0-.52-.11-.71-.29-.18-.19-.29-.45-.29-.71 0-.27.11-.52.29-.71.37-.37 1.05-.37 1.42 0 .18.19.29.44.29.71 0 .26-.11.52-.29.71-.19.18-.45.29-.71.29zm13 5c-.26 0-.52-.11-.71-.29-.18-.19-.29-.45-.29-.71 0-.26.11-.52.29-.71.37-.37 1.04-.37 1.42 0 .18.19.29.45.29.71 0 .26-.11.52-.29.71-.19.18-.45.29-.71.29zm-21-5c-.26 0-.52-.11-.71-.29-.18-.19-.29-.44-.29-.71 0-.27.11-.52.29-.71.37-.37 1.05-.37 1.42 0 .18.19.29.45.29.71 0 .26-.11.52-.29.71-.19.18-.45.29-.71.29z"/></symbol><symbol id="businessman" viewBox="0 0 64 64"><path fill="#F74848" d="M32.21 15.13L38 49l-9 8-9-8 5.79-33.87h6.42z"/><path fill="#1D1B4C" d="M53.447 64H10.553c-2.648 0-4.856-2.055-5.026-4.678l-3.517-54a4.933 4.933 0 011.34-3.727A5.07 5.07 0 017.037 0h49.926c1.394 0 2.739.581 3.688 1.595a4.933 4.933 0 011.339 3.727l-3.517 54.001C58.303 61.945 56.095 64 53.447 64zM7.037 2c-.856 0-1.647.342-2.229.962a2.95 2.95 0 00-.802 2.23l3.517 54C7.625 60.767 8.956 62 10.553 62h42.894c1.597 0 2.928-1.233 3.03-2.807l3.517-54a2.95 2.95 0 00-.802-2.23A3.023 3.023 0 0056.962 2H7.038z"/><path fill="#1D1B4C" d="M15 18a1.001 1.001 0 01-1-1V1a1 1 0 012 0v14.586l13.855-4.89-12.436-8.882A1 1 0 0118.58.186l14 10a1 1 0 01-.248 1.757l-17 6A.992.992 0 0115 18z"/><path fill="#1D1B4C" d="M49 18a.992.992 0 01-.333-.057l-17-6a1 1 0 01-.248-1.757l14-10a1 1 0 111.162 1.628l-12.436 8.883L48 15.587V1a1 1 0 012 0v16a1 1 0 01-1 1z"/><path fill="#1D1B4C" d="M32 55a.996.996 0 01-.665-.253l-9-8a1 1 0 01-.32-.916l5.79-33.87a1 1 0 111.97.337L24.08 45.621 32 52.662l7.92-7.04-5.696-33.324a1 1 0 011.972-.337l5.79 33.87a1 1 0 01-.322.916l-9 8A.996.996 0 0132 55z"/><path fill="#1D1B4C" d="M28 46c-.26 0-.52-.11-.71-.29-.18-.19-.29-.45-.29-.71 0-.26.11-.52.29-.71.37-.37 1.05-.37 1.42 0 .18.19.29.44.29.71 0 .26-.11.52-.29.71-.19.18-.45.29-.71.29zm4-4c-.26 0-.52-.11-.71-.29-.18-.19-.29-.45-.29-.71 0-.26.11-.52.29-.71.37-.37 1.05-.37 1.42 0 .18.19.29.45.29.71 0 .26-.11.52-.29.71-.19.18-.45.29-.71.29zm0 4c-.26 0-.52-.11-.71-.29-.18-.19-.29-.45-.29-.71 0-.27.11-.52.29-.71.38-.37 1.05-.37 1.42 0 .18.19.29.45.29.71 0 .26-.11.52-.29.71-.19.18-.44.29-.71.29zm-4-4c-.26 0-.52-.11-.71-.29-.18-.19-.29-.45-.29-.71 0-.26.11-.52.29-.71.37-.37 1.05-.37 1.42 0 .18.19.29.45.29.71 0 .26-.11.52-.29.71-.19.18-.44.29-.71.29zm4 8c-.26 0-.52-.11-.71-.29-.18-.19-.29-.45-.29-.71 0-.27.11-.52.29-.71.37-.37 1.05-.37 1.42 0 .18.19.29.45.29.71 0 .26-.11.52-.29.71-.19.18-.45.29-.71.29zm4-4c-.27 0-.52-.11-.71-.29-.18-.19-.29-.45-.29-.71 0-.26.11-.52.29-.71.37-.37 1.05-.37 1.42 0 .18.19.29.45.29.71 0 .26-.11.52-.29.71-.19.18-.45.29-.71.29zm0-4c-.26 0-.52-.11-.71-.29-.18-.19-.29-.45-.29-.71 0-.26.11-.52.29-.71.37-.37 1.05-.37 1.42 0 .18.19.29.45.29.71 0 .26-.11.52-.29.71-.19.18-.45.29-.71.29zM17.999 64a1 1 0 01-.997-.934l-2-30a1 1 0 01.932-1.064c.537-.046 1.027.38 1.064.931l2 30a1 1 0 01-.932 1.065L18 64zm28.002 0l-.067-.002a1 1 0 01-.932-1.064l2-30a.995.995 0 011.064-.932 1 1 0 01.932 1.064l-2 30A1 1 0 0146 64zm-33.002 0a1 1 0 01-.997-.934l-.67-10a1 1 0 01.931-1.064c.551-.02 1.028.38 1.065.931l.67 10A1 1 0 0112.999 64zm38.002 0l-.068-.002a1 1 0 01-.93-1.064l.67-10c.036-.551.5-.952 1.064-.932a1 1 0 01.93 1.064l-.67 10a1 1 0 01-.996.934z"/></symbol></svg>