<svg xmlns="http://www.w3.org/2000/svg" width="229" height="49" fill="none"><defs/><g opacity=".7"><path fill="#3FCCDF" d="M29.08 24.1L15 48.17V.02L29.08 24.1z" opacity=".6"/></g><path fill="#3FCCDF" d="M14.07 22.07H5.86L13.9 8.15V.02L0 24.1l13.9 24.07v-8.12L5.86 26.13h8.21v-4.06zm16.45 2.03L16.55.02V0h4.75l13.91 24.1-11.56 20.03h11.33l11.55-20.06L32.62 0h4.71l13.91 24.1-13.91 24.09H16.55v-.02L30.52 24.1zm56.29 9.608c-1.072.722-2.423 1.284-4.052 1.687-1.608.403-3.323.605-5.146.605-2.272 0-4.202-.276-5.788-.828-1.587-.572-2.787-1.358-3.602-2.355A5.405 5.405 0 0167 29.347c0-1.188.332-2.238.997-3.15.665-.913 1.576-1.592 2.733-2.038-.879-.467-1.565-1.103-2.058-1.91-.471-.806-.707-1.708-.707-2.705 0-1.21.375-2.313 1.125-3.31.75-.998 1.887-1.794 3.41-2.388 1.521-.594 3.386-.891 5.595-.891 1.458 0 2.883.148 4.277.445 1.393.276 2.605.658 3.634 1.146l-1.447 3.947a14.758 14.758 0 00-6.271-1.368c-1.672 0-2.938.254-3.795.764-.836.488-1.254 1.156-1.254 2.005 0 .785.278 1.39.836 1.814.579.403 1.447.605 2.605.605h6.142v4.074h-6.464c-1.308 0-2.315.223-3.023.669-.707.445-1.061 1.092-1.061 1.941 0 .892.45 1.592 1.35 2.101.923.488 2.327.732 4.214.732 1.329 0 2.658-.17 3.987-.509 1.33-.36 2.455-.86 3.377-1.496l1.608 3.883zM106.914 12v23.618h-4.792v-1.973c-1.243 1.485-3.044 2.228-5.402 2.228-1.63 0-3.109-.361-4.438-1.082-1.308-.722-2.337-1.751-3.087-3.088-.75-1.337-1.126-2.886-1.126-4.647 0-1.762.375-3.31 1.126-4.648.75-1.336 1.779-2.366 3.087-3.087 1.329-.722 2.808-1.082 4.438-1.082 2.208 0 3.934.69 5.177 2.069V12h5.017zm-9.326 19.798c1.265 0 2.315-.424 3.152-1.273.836-.87 1.254-2.026 1.254-3.47 0-1.442-.418-2.588-1.254-3.437-.837-.87-1.887-1.305-3.152-1.305-1.286 0-2.348.435-3.184 1.305-.836.849-1.254 1.995-1.254 3.438s.418 2.6 1.254 3.47c.836.848 1.898 1.272 3.184 1.272zm31.399-13.305v17.125h-4.759v-2.037a6.827 6.827 0 01-2.38 1.719 7.737 7.737 0 01-2.991.573c-2.272 0-4.073-.648-5.402-1.942-1.33-1.294-1.994-3.215-1.994-5.761v-9.677h5.016v8.945c0 2.758 1.169 4.138 3.506 4.138 1.2 0 2.165-.382 2.894-1.146.729-.785 1.093-1.942 1.093-3.47v-8.467h5.017zM141.134 36c-1.78 0-3.505-.233-5.178-.7-1.65-.488-2.98-1.114-3.987-1.878l1.768-3.883c.965.7 2.112 1.262 3.441 1.686 1.33.425 2.659.637 3.988.637 1.479 0 2.573-.212 3.28-.636.708-.446 1.061-1.03 1.061-1.751 0-.53-.214-.966-.643-1.305-.407-.361-.943-.648-1.608-.86-.643-.212-1.522-.445-2.637-.7-1.715-.403-3.119-.806-4.212-1.21a6.963 6.963 0 01-2.83-1.941c-.772-.891-1.158-2.08-1.158-3.565 0-1.294.354-2.462 1.061-3.501.708-1.061 1.769-1.9 3.184-2.515 1.436-.615 3.184-.923 5.242-.923 1.436 0 2.84.17 4.212.51 1.373.339 2.573.827 3.602 1.463l-1.608 3.915c-2.079-1.167-4.159-1.75-6.238-1.75-1.458 0-2.541.233-3.249.7-.686.467-1.029 1.082-1.029 1.846s.397 1.337 1.19 1.72c.815.36 2.048.72 3.699 1.081 1.715.403 3.119.807 4.212 1.21a6.852 6.852 0 012.798 1.91c.793.87 1.19 2.047 1.19 3.533a6.05 6.05 0 01-1.093 3.501c-.708 1.04-1.78 1.867-3.216 2.483-1.437.615-3.184.923-5.242.923zm23.273-17.761c2.144 0 3.87.636 5.178 1.91 1.329 1.273 1.993 3.161 1.993 5.665v9.804h-5.016v-9.04c0-1.358-.301-2.366-.901-3.024-.6-.679-1.468-1.018-2.605-1.018-1.265 0-2.272.392-3.023 1.177-.75.764-1.125 1.91-1.125 3.438v8.467h-5.017V12h5.017v8.276a6.49 6.49 0 012.412-1.496c.943-.36 1.972-.541 3.087-.541zm29.466.254v17.125h-4.792v-1.973c-1.243 1.485-3.044 2.228-5.402 2.228-1.63 0-3.109-.361-4.438-1.082-1.308-.722-2.337-1.751-3.088-3.088-.75-1.337-1.125-2.886-1.125-4.647 0-1.762.375-3.31 1.125-4.648.751-1.336 1.78-2.366 3.088-3.087 1.329-.722 2.808-1.082 4.438-1.082 2.208 0 3.934.69 5.177 2.069v-1.815h5.017zm-9.326 13.305c1.265 0 2.315-.424 3.151-1.273.837-.87 1.255-2.026 1.255-3.47 0-1.442-.418-2.588-1.255-3.437-.836-.87-1.886-1.305-3.151-1.305-1.286 0-2.348.435-3.184 1.305-.836.849-1.254 1.995-1.254 3.438s.418 2.6 1.254 3.47c.836.848 1.898 1.272 3.184 1.272zm18.762-11.045c.601-.827 1.404-1.453 2.412-1.878 1.029-.424 2.208-.636 3.538-.636v4.583a18.282 18.282 0 00-1.126-.063c-1.436 0-2.562.403-3.377 1.21-.814.784-1.222 1.973-1.222 3.564v8.085h-5.016V18.493h4.791v2.26zM220.8 31.894c.9 0 1.693-.127 2.379-.382a5.973 5.973 0 001.962-1.273l2.669 2.864c-1.629 1.847-4.009 2.77-7.139 2.77-1.951 0-3.677-.372-5.178-1.114-1.5-.764-2.658-1.815-3.473-3.152-.814-1.336-1.222-2.854-1.222-4.551 0-1.677.397-3.183 1.19-4.52a8.41 8.41 0 013.312-3.151c1.415-.764 3.002-1.146 4.76-1.146 1.651 0 3.151.35 4.502 1.05a7.76 7.76 0 013.216 2.992c.815 1.295 1.222 2.833 1.222 4.616l-12.799 2.45c.364.85.932 1.486 1.704 1.91.793.425 1.758.637 2.895.637zm-.74-9.9c-1.265 0-2.294.404-3.087 1.21-.794.807-1.212 1.92-1.255 3.342l8.426-1.623a3.74 3.74 0 00-1.447-2.132c-.729-.531-1.608-.796-2.637-.796z"/></svg>